<svg xmlns="http://www.w3.org/2000/svg"  viewBox="0 0 64 64" width="96px" height="96px"><path d="M 21.484375 4.0527344 C 20.813375 4.0527344 20.269531 4.5965781 20.269531 5.2675781 C 20.269531 5.9385781 20.813375 6.4824219 21.484375 6.4824219 C 22.155375 6.4824219 22.699219 5.9385781 22.699219 5.2675781 C 22.699219 4.5965781 22.155375 4.0527344 21.484375 4.0527344 z M 36.412109 5.5878906 C 35.162109 5.5878906 34.148438 6.6015625 34.148438 7.8515625 C 34.148438 9.1015625 35.162109 10.115234 36.412109 10.115234 C 37.662109 10.115234 38.677734 9.1015625 38.677734 7.8515625 C 38.677734 6.6015625 37.662109 5.5878906 36.412109 5.5878906 z M 29.494141 10.779297 C 24.531141 10.779297 20.305953 13.889719 18.626953 18.261719 C 14.851953 18.835719 11.957031 22.086484 11.957031 26.021484 C 11.957031 27.499484 12.373031 28.875641 13.082031 30.056641 C 11.397031 31.591641 10.332031 33.796859 10.332031 36.255859 C 10.332031 40.423859 13.375422 43.871391 17.357422 44.525391 C 17.436422 49.410391 21.414359 53.349609 26.318359 53.349609 C 28.465359 53.349609 30.434516 52.591984 31.978516 51.333984 C 33.152516 52.435984 34.721984 53.123047 36.458984 53.123047 C 39.606984 53.123047 42.230187 50.906219 42.867188 47.949219 C 42.997187 47.954219 43.124859 47.96875 43.255859 47.96875 C 48.680859 47.96875 53.078125 43.571484 53.078125 38.146484 C 53.078125 36.193484 52.502531 34.377656 51.519531 32.847656 C 52.836531 31.833656 53.699219 30.25875 53.699219 28.46875 C 53.699219 25.87075 51.903234 23.707422 49.490234 23.107422 C 49.520234 22.790422 49.539062 22.470484 49.539062 22.146484 C 49.539062 16.586484 45.032656 12.078125 39.472656 12.078125 C 38.228656 12.078125 37.041406 12.315516 35.941406 12.728516 C 34.095406 11.499516 31.878141 10.779297 29.494141 10.779297 z M 16.412109 12.669922 C 15.472109 12.669922 14.708984 13.432047 14.708984 14.373047 C 14.708984 15.314047 15.472109 16.076172 16.412109 16.076172 C 17.353109 16.076172 18.115234 15.313047 18.115234 14.373047 C 18.115234 13.432047 17.352109 12.669922 16.412109 12.669922 z M 29.839844 14.779297 C 33.066844 14.779297 35.267578 16.591797 35.267578 16.591797 C 35.267578 16.591797 36.682938 15.902344 38.460938 15.902344 C 42.647938 15.902344 46.052734 19.307141 46.052734 23.494141 C 46.052734 24.031141 45.925781 25.167969 45.925781 25.167969 C 46.824781 25.301969 49.644531 26.011031 49.644531 28.957031 C 49.644531 31.152031 47.728672 32.183375 47.388672 32.484375 C 47.956672 33.264375 49.109375 35.003359 49.109375 37.318359 C 49.109375 41.389359 45.796516 44.700172 41.728516 44.701172 C 41.369516 44.701172 40.507812 44.648438 40.507812 44.648438 C 40.321813 46.590438 38.853469 49.15625 35.855469 49.15625 C 33.607469 49.15625 32.310109 47.465094 32.037109 47.246094 C 31.567109 47.635094 29.92175 49.349609 27.09375 49.349609 C 23.49275 49.349609 20.515031 46.417453 20.457031 42.814453 L 20.441406 41.890625 C 18.885406 41.825625 14.388672 40.568547 14.388672 35.685547 C 14.388672 32.361547 17.072266 30.537109 17.072266 30.537109 C 17.072266 30.537109 15.687016 28.68775 15.791016 26.84375 C 16.101016 21.36475 21.25 21.134766 21.25 21.134766 C 21.25 21.134766 23.183844 14.779297 29.839844 14.779297 z M 53.515625 18.144531 C 52.457625 18.144531 51.599609 19.002547 51.599609 20.060547 C 51.599609 21.118547 52.457625 21.976562 53.515625 21.976562 C 54.573625 21.976563 55.431641 21.118547 55.431641 20.060547 C 55.431641 19.002547 54.573625 18.144531 53.515625 18.144531 z M 35.271484 22.443359 C 33.377484 22.443359 32.809438 24.240234 31.773438 24.240234 C 30.687438 24.240234 29.994719 22.992188 28.386719 22.992188 C 25.036719 22.992187 24.266281 25.955781 23.738281 27.550781 C 23.149281 29.331781 21.163797 35.6285 20.966797 36.4375 C 20.273797 39.2805 22.904438 40.388672 24.148438 40.388672 C 25.769437 40.388672 26.604859 39.039594 27.005859 38.058594 C 27.362859 37.185594 30.459391 29.430344 30.525391 29.277344 C 30.921391 28.354344 31.462969 28.160344 31.917969 28.277344 C 32.520969 28.431344 32.801281 28.959109 32.488281 29.912109 C 32.189281 30.821109 30.659922 34.48825 30.169922 35.78125 C 29.511922 37.51925 30.372328 38.269531 31.486328 38.269531 C 32.601328 38.269531 33.343187 37.413469 33.867188 36.230469 C 34.327187 35.191469 37.428063 29.231641 37.789062 28.431641 C 38.181062 27.563641 38.635047 27.324547 39.123047 27.435547 C 39.805047 27.589547 39.781937 28.17525 39.335938 29.15625 C 38.889937 30.13725 37.702172 32.672031 37.076172 33.957031 C 36.580172 34.976031 36.050781 35.649781 36.050781 37.300781 C 36.050781 40.529781 39.514281 41.357422 41.488281 41.357422 C 42.852281 41.357422 43.71875 40.733719 43.71875 39.886719 C 43.71875 38.867719 42.613547 38.695828 41.310547 38.548828 C 40.036547 38.405828 39.796875 37.524391 39.796875 36.900391 C 39.796875 36.276391 40.167891 34.855328 41.087891 32.736328 C 41.763891 31.179328 43.447266 27.569422 43.447266 26.232422 C 43.447266 24.402422 41.977969 23.222656 40.417969 23.222656 C 38.672969 23.222656 38.370438 23.923828 37.898438 23.923828 C 37.325437 23.923828 36.657484 22.443359 35.271484 22.443359 z M 59.847656 25.300781 C 59.272656 25.300781 58.806641 25.766797 58.806641 26.341797 C 58.806641 26.916797 59.272656 27.382812 59.847656 27.382812 C 60.422656 27.382812 60.888672 26.916797 60.888672 26.341797 C 60.888672 25.766797 60.422656 25.300781 59.847656 25.300781 z M 7.5917969 28.521484 C 6.3417969 28.521484 5.328125 29.535156 5.328125 30.785156 C 5.328125 32.035156 6.3417969 33.048828 7.5917969 33.048828 C 8.8417969 33.048828 9.8554688 32.036156 9.8554688 30.785156 C 9.8554688 29.535156 8.8427969 28.521484 7.5917969 28.521484 z M 57.029297 32.029297 C 56.256297 32.029297 55.628906 32.655687 55.628906 33.429688 C 55.628906 34.202688 56.256297 34.830078 57.029297 34.830078 C 57.802297 34.830078 58.429688 34.202688 58.429688 33.429688 C 58.429687 32.656688 57.802297 32.029297 57.029297 32.029297 z M 14.732422 46.177734 C 14.156422 46.177734 13.689453 46.644703 13.689453 47.220703 C 13.689453 47.796703 14.156422 48.263672 14.732422 48.263672 C 15.308422 48.263672 15.775391 47.796703 15.775391 47.220703 C 15.775391 46.644703 15.308422 46.177734 14.732422 46.177734 z M 46.410156 49.818359 C 45.110156 49.818359 44.056641 50.872875 44.056641 52.171875 C 44.056641 53.470875 45.110156 54.525391 46.410156 54.525391 C 47.709156 54.525391 48.763672 53.471875 48.763672 52.171875 C 48.763672 50.872875 47.710156 49.818359 46.410156 49.818359 z M 31.712891 54.158203 C 30.910891 54.158203 30.261719 54.807375 30.261719 55.609375 C 30.261719 56.411375 30.910891 57.0625 31.712891 57.0625 C 32.514891 57.0625 33.164062 56.411375 33.164062 55.609375 C 33.164062 54.807375 32.514891 54.158203 31.712891 54.158203 z"/></svg>