<?xml version="1.0" standalone="no"?>
<!DOCTYPE svg PUBLIC "-//W3C//DTD SVG 20010904//EN"
 "http://www.w3.org/TR/2001/REC-SVG-20010904/DTD/svg10.dtd">
<svg version="1.0" xmlns="http://www.w3.org/2000/svg"
 width="920.000000pt" height="486.000000pt" viewBox="0 0 920.000000 486.000000"
 preserveAspectRatio="xMidYMid meet">

<g transform="translate(0.000000,486.000000) scale(0.100000,-0.100000)"
fill="#000000" stroke="none">
<path d="M596 4313 c-9 -23 -5 -174 4 -168 4 2 7 -14 7 -35 0 -22 -4 -40 -8
-40 -5 0 -6 -7 -3 -15 7 -18 21 -20 27 -2 2 6 3 4 2 -5 -2 -10 1 -18 6 -18 5
0 9 -5 9 -11 0 -8 -4 -8 -14 1 -12 9 -15 8 -13 -9 1 -12 5 -21 10 -21 11 0 -2
-112 -15 -125 -6 -6 -12 -5 -18 5 -11 17 -8 -25 9 -130 13 -80 13 -90 2 -90
-4 0 -6 12 -3 28 2 15 2 24 -2 21 -4 -4 -9 -16 -11 -28 -2 -13 -7 -32 -11 -44
-5 -18 -4 -20 7 -9 21 19 38 15 32 -9 -4 -15 -8 -17 -13 -8 -9 13 -30 -49 -30
-88 0 -33 -20 -114 -36 -144 -10 -20 -10 -29 -2 -37 9 -9 9 -12 -1 -12 -7 0
-9 -5 -5 -12 5 -7 -7 0 -25 15 -30 25 -36 26 -49 14 -16 -16 -9 -37 12 -37 8
0 13 -11 12 -29 -1 -19 -5 -27 -14 -23 -8 2 -11 13 -9 23 3 10 -2 20 -10 23
-11 5 -13 2 -9 -9 6 -17 -53 23 -91 61 -12 12 -28 24 -35 27 -7 2 -10 8 -6 12
4 4 15 0 24 -9 15 -16 17 -16 29 1 7 10 17 14 22 10 4 -5 -1 -15 -11 -23 -16
-11 -17 -16 -7 -27 10 -10 12 -9 9 2 -6 27 31 24 43 -3 l12 -26 24 32 c26 36
29 46 9 29 -12 -10 -13 -8 -9 9 4 16 -1 23 -26 33 -18 6 -29 17 -27 24 3 7 1
15 -5 18 -5 4 -7 10 -4 15 3 5 0 12 -6 16 -8 4 -9 3 -5 -4 4 -7 1 -12 -6 -12
-8 -1 -6 -6 6 -15 11 -8 15 -15 9 -15 -7 0 -15 5 -19 11 -3 6 -20 20 -38 31
-17 11 -22 17 -12 14 15 -5 17 -4 8 7 -18 21 -99 60 -110 53 -6 -3 -14 -1 -18
5 -5 8 -3 9 7 4 11 -6 12 -5 2 5 -17 19 -43 21 -43 5 0 -20 -23 -24 -37 -6 -9
13 -14 10 -33 -23 -13 -20 -26 -33 -29 -28 -3 5 -18 12 -33 16 -27 6 -28 6
-27 -44 1 -27 8 -58 16 -67 13 -16 13 -16 3 5 -7 13 -9 26 -6 29 6 6 27 -43
23 -55 -1 -4 3 -7 8 -7 6 0 9 6 9 12 -1 9 3 10 16 3 15 -8 17 -6 13 10 -4 13
0 20 10 20 17 0 26 -28 28 -80 0 -29 2 -31 9 -15 8 18 9 18 10 -5 1 -23 2 -24
14 -7 13 16 15 15 25 -14 11 -31 12 -31 30 -15 11 10 17 24 15 31 -3 7 2 15
10 18 22 9 20 -16 -3 -37 -16 -14 -18 -29 -12 -70 0 -4 8 -6 16 -2 18 7 21
-20 3 -28 -7 -3 -3 -3 10 0 16 4 23 2 21 -8 -3 -26 3 -73 8 -55 8 29 23 19 24
-15 l1 -33 13 30 c9 19 14 24 15 13 0 -16 40 -67 40 -51 0 11 42 -32 51 -52
l8 -20 1 20 c0 17 2 17 10 5 7 -11 10 -7 10 18 0 17 5 32 10 32 6 0 10 -12 10
-26 0 -15 4 -23 11 -18 6 3 9 15 6 25 -3 11 -1 19 3 19 5 0 11 -10 13 -22 4
-22 4 -22 6 -2 0 12 -6 27 -14 34 -8 7 -15 20 -15 29 1 13 3 13 16 -4 9 -11
20 -32 26 -47 14 -39 32 -36 24 5 -4 24 -3 28 5 17 9 -12 11 -13 16 -1 4 9 18
-6 39 -40 33 -54 33 -54 11 -65 -22 -12 -47 -8 -47 8 0 5 4 7 9 4 5 -4 8 2 6
11 -2 10 -4 28 -4 41 -1 12 -6 22 -11 22 -7 0 -9 -15 -6 -37 3 -21 3 -30 0
-20 -3 9 -9 17 -14 17 -4 0 -3 -13 3 -30 6 -16 15 -30 19 -30 4 0 8 -7 8 -15
0 -18 -1 -18 -34 -5 -59 22 -177 27 -306 11 -196 -23 -196 -23 -191 -53 0 -5
-4 -8 -10 -8 -6 0 -9 6 -6 14 3 8 -1 17 -10 20 -24 9 -27 0 -9 -26 9 -12 16
-30 16 -40 0 -10 5 -18 11 -18 6 0 8 -7 5 -16 -3 -9 1 -25 9 -37 15 -21 15
-21 16 8 0 17 3 24 6 18 2 -7 10 -13 16 -13 6 0 19 -7 29 -16 17 -16 17 -15
-1 22 -18 37 -18 64 0 64 4 0 6 7 2 16 -5 14 -3 15 15 5 19 -10 28 -35 23 -63
0 -5 4 -8 9 -8 6 0 10 -8 10 -17 0 -15 2 -16 10 -3 8 12 10 12 10 1 0 -8 3
-11 6 -8 4 4 2 13 -5 20 -13 16 -22 75 -12 82 8 5 36 -61 40 -95 0 -5 6 -10
12 -10 6 0 8 7 5 16 -3 9 -9 28 -12 42 l-6 27 18 -25 c22 -30 25 -60 7 -67 -7
-3 -10 -9 -7 -14 3 -5 -2 -6 -11 -3 -11 5 -14 2 -9 -11 5 -13 3 -16 -7 -13 -8
3 -14 10 -14 15 0 6 -3 15 -7 19 -5 4 -8 0 -8 -9 0 -9 5 -19 10 -22 10 -6 -17
-65 -30 -65 -4 0 -15 -7 -26 -15 -18 -14 -17 -14 11 -5 l30 10 -25 -21 c-14
-11 -18 -17 -10 -13 13 7 13 5 1 -9 -10 -13 -10 -17 -1 -17 8 0 11 -9 7 -26
-3 -16 0 -28 9 -31 8 -3 11 -10 7 -16 -3 -6 -1 -7 5 -3 7 4 9 20 6 39 -4 23
-3 28 4 18 14 -20 66 -25 58 -6 -3 8 0 17 6 21 7 5 8 2 3 -6 -5 -9 -4 -11 4
-6 7 5 9 12 3 19 -12 15 -12 48 0 41 5 -3 6 -9 3 -14 -3 -4 2 -13 10 -20 8 -7
12 -16 9 -21 -3 -5 2 -6 12 -2 14 5 13 9 -7 25 -20 16 -21 19 -5 14 19 -7 19
-6 1 14 -10 11 -13 20 -7 20 6 0 14 -6 18 -12 6 -9 10 -5 14 12 4 17 12 24 24
22 11 -2 20 4 23 16 5 20 18 23 40 9 7 -5 12 -1 12 10 1 42 8 67 21 71 8 3 11
-1 7 -10 -3 -9 0 -21 6 -28 9 -10 8 -12 -5 -7 -13 4 -18 1 -18 -10 0 -9 3 -13
7 -10 3 4 18 -3 32 -15 l25 -23 -17 27 c-16 26 -16 28 3 38 15 8 18 8 14 -3
-3 -8 1 -17 9 -20 17 -6 17 8 1 36 -10 18 -11 18 -29 0 -18 -17 -19 -17 -12 0
4 10 7 21 7 23 0 3 5 2 10 -1 14 -9 12 9 -2 24 -11 10 -10 11 5 6 9 -4 17 -11
17 -16 0 -8 59 -99 64 -99 10 0 65 62 69 77 3 10 5 3 6 -16 0 -18 -8 -48 -18
-65 -49 -80 -169 -424 -200 -571 -14 -69 -29 -228 -41 -440 -12 -210 -14 -736
-3 -744 11 -8 15 -51 5 -51 -4 0 -5 -37 0 -82 4 -46 9 -112 10 -148 l3 -65 63
2 c72 2 81 6 64 33 -7 12 -8 20 -2 20 5 0 10 4 10 10 0 5 -6 9 -12 7 -9 -1
-13 11 -14 36 0 21 -6 42 -12 46 -7 4 -10 15 -6 24 4 11 1 17 -7 17 -10 0 -10
3 -1 12 16 16 -3 49 -26 42 -11 -4 -13 -3 -5 3 7 5 11 29 9 62 -2 43 -7 56
-22 61 -18 7 -18 7 1 12 16 5 17 6 3 7 -18 1 -26 21 -9 21 5 0 11 13 13 29 2
17 1 28 -4 25 -4 -3 -8 -1 -8 5 0 5 5 13 11 16 7 5 3 14 -10 26 -22 21 -28 35
-11 24 6 -3 10 1 10 9 0 9 -5 16 -12 16 -6 0 -4 8 6 19 15 17 15 19 0 32 -15
12 -14 14 3 20 16 7 15 8 -4 8 -13 1 -23 6 -23 12 0 5 -5 7 -12 3 -7 -5 -8 -3
-4 5 5 7 14 10 22 7 7 -3 16 -1 19 4 4 6 -3 10 -14 10 -21 0 -24 15 -6 36 7 8
12 8 16 2 4 -6 10 0 14 12 5 17 3 27 -9 36 -16 11 -16 13 1 17 14 4 14 5 -4 6
-24 1 -31 17 -12 23 6 2 12 18 13 35 1 18 -2 30 -6 27 -4 -3 -8 -1 -8 5 0 5 5
13 11 16 6 4 8 13 5 20 -2 7 -2 15 0 18 3 3 7 31 9 64 2 32 6 68 9 80 2 13 0
23 -6 23 -7 0 -7 4 0 13 5 6 8 31 6 55 -2 24 0 51 5 61 6 10 6 23 1 31 -6 9
-5 17 3 22 9 6 9 8 0 8 -8 0 -9 9 -3 29 4 15 4 35 -1 42 -5 8 -3 22 5 34 9 13
12 38 9 65 -3 29 -1 40 5 32 7 -10 11 -7 14 12 3 15 1 26 -6 26 -7 0 -7 3 1 8
7 4 15 23 18 42 3 19 10 39 15 45 5 6 7 23 6 38 -2 15 1 27 6 27 6 0 8 6 5 14
-3 7 0 19 6 26 9 10 9 14 0 17 -10 3 -9 8 2 20 8 8 13 19 10 24 -4 5 2 9 12 9
17 1 16 2 -2 17 -15 12 -16 14 -3 10 17 -6 28 11 28 44 0 13 4 18 12 13 8 -5
9 -2 4 11 -4 10 -2 21 4 25 6 4 12 15 15 26 2 10 8 34 14 52 5 17 7 32 3 32
-4 0 0 4 8 10 9 6 17 5 22 -3 5 -8 8 -5 9 8 0 11 2 31 2 44 2 26 52 62 75 53
11 -4 11 -6 0 -13 -9 -6 -6 -8 9 -6 18 1 20 4 12 19 -6 10 -14 16 -19 13 -4
-3 -6 4 -3 14 3 13 11 18 21 14 10 -4 14 -3 10 1 -10 11 31 48 45 40 7 -4 22
-16 35 -27 17 -16 19 -23 10 -29 -9 -5 -7 -8 7 -8 16 -1 15 -4 -9 -17 -16 -8
-36 -16 -44 -17 -8 -2 -17 -12 -19 -24 -2 -19 0 -20 23 -11 15 5 29 7 32 4 3
-3 0 -5 -7 -5 -7 0 -9 -4 -6 -10 3 -5 0 -7 -9 -4 -8 3 -24 0 -34 -8 -18 -12
-18 -15 -4 -28 14 -13 15 -12 10 2 -4 10 -1 19 7 22 10 3 12 0 8 -11 -5 -12
-3 -14 7 -8 9 6 11 4 5 -5 -6 -10 -4 -12 9 -7 10 4 20 7 22 7 3 0 2 5 -1 10
-3 6 -2 10 4 10 13 0 22 -15 14 -24 -14 -13 -12 -38 3 -32 8 3 14 1 14 -4 0
-6 -10 -10 -22 -10 -18 0 -20 -2 -8 -10 12 -7 12 -10 -4 -16 -11 -4 -28 -1
-40 6 -18 12 -19 11 -9 -2 7 -8 11 -17 8 -20 -12 -11 55 0 70 12 9 7 15 9 14
4 -3 -20 2 -26 14 -16 8 7 16 6 24 -3 10 -11 5 -20 -26 -48 -27 -24 -36 -39
-30 -48 5 -9 2 -16 -9 -21 -14 -7 -14 -7 3 -5 13 2 20 10 19 25 0 14 5 22 15
22 9 0 27 3 41 5 16 3 12 0 -10 -9 -25 -11 -30 -15 -15 -16 l20 -1 -20 -8
c-19 -8 -18 -9 5 -13 22 -5 22 -5 4 -7 -27 -1 -41 -31 -16 -32 14 0 14 -2 -2
-8 -14 -5 -16 -10 -8 -15 7 -4 12 -5 12 -1 0 3 9 1 19 -5 17 -8 19 -7 16 15
-2 24 5 32 18 18 4 -3 2 -12 -4 -20 -14 -17 2 -17 21 -1 8 7 0 -4 -18 -25 -35
-41 -39 -53 -19 -60 6 -3 2 -4 -10 -4 -12 1 -21 4 -20 7 1 3 -2 5 -7 5 -5 0
-10 -18 -12 -40 l-2 -40 13 30 c13 28 14 29 12 5 -2 -31 -14 -40 -50 -40 -16
0 -26 -4 -22 -10 3 -5 -3 -10 -14 -10 -12 0 -21 -4 -21 -8 0 -5 -27 -21 -60
-37 -66 -31 -80 -60 -35 -71 14 -3 25 -13 25 -22 0 -12 -3 -13 -12 -4 -14 14
-32 16 -23 3 3 -5 -4 -16 -15 -24 -18 -13 -19 -15 -5 -21 11 -4 15 -13 11 -28
-3 -13 -3 -17 0 -10 3 6 10 10 15 6 5 -3 9 0 9 7 0 8 3 9 14 0 11 -9 12 -6 9
16 -4 22 -2 25 6 13 7 -10 11 -11 11 -3 0 7 7 10 15 7 8 -4 15 -1 15 6 0 15
58 70 74 69 7 0 7 -2 -1 -6 -7 -2 -13 -9 -13 -14 0 -15 22 -10 44 9 20 16 20
16 7 -1 -12 -15 -11 -19 5 -32 17 -12 22 -11 42 7 13 13 22 16 22 9 0 -7 5 -9
12 -5 8 5 9 1 5 -12 -7 -18 -6 -18 7 -1 12 15 15 16 26 2 7 -9 19 -14 27 -11
8 3 16 -1 19 -8 3 -8 14 -12 25 -9 13 4 19 1 17 -8 -2 -9 5 -13 20 -11 22 3
23 2 11 -20 l-12 -23 20 20 c11 11 19 23 16 27 -2 4 3 5 12 2 10 -4 15 -14 12
-25 -3 -11 0 -19 6 -19 6 0 2 -7 -9 -15 -10 -8 -15 -15 -10 -15 4 0 -18 -28
-50 -63 -126 -134 -235 -319 -312 -527 -97 -262 -112 -306 -112 -323 0 -9 -6
-31 -14 -49 -20 -46 -48 -148 -49 -181 -1 -15 -5 -27 -9 -27 -5 0 -8 -13 -8
-29 0 -16 -6 -36 -14 -44 -13 -12 -13 -17 1 -37 15 -21 15 -24 -1 -36 -16 -11
-14 -13 13 -19 17 -3 35 -4 40 -1 5 3 12 36 15 73 11 117 27 203 38 203 7 0 6
5 -1 14 -8 10 -9 16 -1 21 6 3 8 11 5 16 -4 5 -1 9 4 9 15 0 14 27 -1 33 -10
4 -9 6 1 6 11 1 11 4 1 16 -10 12 -10 15 2 15 18 0 38 42 33 69 -2 12 0 21 6
21 5 0 9 10 9 23 0 12 7 31 15 41 8 11 15 28 15 38 0 10 7 30 16 43 9 13 13
29 9 35 -3 5 -2 10 3 10 4 0 21 43 37 95 16 53 34 100 42 106 7 6 13 19 13 28
0 10 9 27 20 38 11 12 21 28 22 35 2 7 11 21 21 30 10 9 18 18 17 20 -5 9 28
66 51 88 14 14 36 41 49 60 13 19 27 37 30 40 4 3 9 13 13 23 5 13 13 17 28
12 16 -5 19 -4 14 5 -5 9 -4 11 3 6 7 -4 12 -2 12 5 0 7 3 10 6 6 3 -3 -3 -19
-15 -35 -24 -35 -29 -61 -7 -43 7 6 33 13 56 15 31 3 40 2 29 -6 -12 -8 -12
-9 1 -5 8 2 14 14 14 25 -1 12 4 22 10 22 22 1 -28 30 -51 30 -19 0 -23 5 -23
32 0 17 6 39 14 47 8 9 20 34 27 57 8 22 19 41 24 42 12 2 14 -38 2 -55 -4 -6
-3 -14 3 -18 5 -3 11 -4 11 -1 3 14 7 27 9 34 2 4 4 14 4 22 1 8 7 14 14 12 7
-1 12 7 12 18 0 11 5 20 11 20 7 0 9 -10 5 -25 -5 -19 -3 -23 9 -19 9 4 15 3
13 -2 -3 -10 5 -14 31 -14 14 0 21 9 24 28 3 17 4 13 4 -13 0 -23 2 -46 6 -51
3 -6 -3 -18 -14 -27 -18 -16 -19 -16 -19 4 0 16 4 19 17 15 15 -6 14 -4 -2 14
-10 11 -24 19 -31 16 -6 -2 -16 0 -22 6 -15 15 -32 1 -32 -28 0 -27 27 -33 49
-11 10 10 12 9 9 -3 -5 -22 -22 -39 -33 -33 -14 7 46 -47 65 -58 13 -8 13 -11
-1 -22 -13 -9 -14 -15 -4 -23 9 -9 16 -6 31 12 10 13 22 23 27 24 12 0 8 -28
-5 -33 -8 -4 -7 -6 4 -6 9 -1 21 11 26 27 l10 27 1 -32 c1 -17 -5 -34 -11 -37
-7 -3 -3 -3 9 0 18 4 21 1 17 -18 -4 -21 -4 -21 4 -3 5 11 7 26 4 34 -4 10 -1
12 7 7 7 -5 10 -18 7 -31 -3 -14 -1 -27 6 -31 7 -4 8 -3 4 4 -4 7 0 22 8 34
11 15 16 18 16 8 0 -13 2 -13 10 0 6 9 6 18 0 24 -6 6 -10 14 -10 19 0 20 30
-24 31 -45 0 -13 3 -17 6 -10 2 6 10 9 16 5 7 -4 19 -8 27 -8 10 0 17 -14 21
-40 3 -22 7 -30 8 -17 0 14 5 20 12 16 6 -3 9 -15 6 -25 -7 -25 6 -32 29 -14
16 12 17 16 5 27 -10 9 -12 9 -7 1 4 -7 2 -13 -3 -13 -14 0 -14 27 -1 35 5 3
17 -6 26 -20 13 -20 19 -23 25 -13 7 10 9 9 9 -4 0 -10 4 -18 10 -18 5 0 7 -6
4 -14 -3 -8 -1 -17 4 -20 5 -3 8 8 6 27 l-4 32 18 -27 c17 -26 18 -26 30 -8 6
10 21 18 32 17 20 -1 20 -2 4 -14 -17 -12 -16 -13 3 -13 12 0 25 5 28 10 8 13
-43 115 -73 145 l-23 23 22 -5 c12 -3 24 -14 26 -24 4 -14 10 -16 29 -9 13 5
32 6 41 3 15 -6 16 -5 3 9 -8 8 -22 13 -31 11 -22 -6 -36 16 -18 29 10 6 7 7
-10 3 -20 -6 -23 -4 -18 9 4 10 3 14 -2 11 -5 -3 -12 -1 -16 5 -3 5 0 10 7 10
10 0 9 3 -2 9 -8 6 -17 8 -20 6 -4 -2 -35 4 -70 15 -35 11 -67 17 -70 15 -4
-3 -10 6 -12 19 -4 17 -1 23 9 19 7 -3 13 -10 13 -17 0 -6 4 -5 9 3 8 13 12
13 27 0 15 -12 16 -12 10 8 -5 16 -2 25 14 33 13 7 20 7 20 0 0 -5 -4 -10 -10
-10 -5 0 -10 -4 -10 -9 0 -5 8 -8 18 -7 11 1 16 -6 15 -17 0 -10 1 -16 4 -13
3 2 16 0 30 -5 19 -7 24 -6 20 3 -2 7 -12 12 -21 12 -11 -1 -16 6 -16 28 0 46
17 70 47 66 15 -2 28 3 30 10 3 8 -5 12 -24 12 -17 0 -23 3 -16 8 9 6 6 11 -8
21 -12 7 -18 8 -14 2 9 -16 -4 -13 -21 4 -9 8 -26 15 -39 15 -13 0 -25 5 -27
11 -3 9 -10 9 -26 0 -23 -12 -62 -7 -62 8 0 4 -6 8 -13 8 -7 0 -14 -13 -15
-29 -3 -32 20 -39 38 -10 11 16 11 16 6 -2 -5 -15 -2 -17 13 -13 11 3 22 0 25
-7 3 -7 8 -6 15 4 10 13 12 13 20 0 5 -8 7 -18 4 -23 -3 -5 4 -4 15 2 28 15
35 14 29 -3 -4 -9 1 -16 13 -18 15 -2 17 -7 10 -18 -8 -13 -11 -13 -19 -1 -10
16 -58 23 -67 10 -3 -5 -12 -9 -21 -9 -9 0 -13 3 -9 8 4 4 13 7 19 7 5 0 12 5
14 12 2 6 -4 10 -14 9 -10 -2 -21 1 -24 7 -4 5 -22 7 -42 3 -32 -6 -35 -10
-41 -51 -5 -29 -15 -50 -29 -60 -12 -8 -17 -15 -11 -15 5 0 15 5 21 11 6 6 16
8 22 5 23 -15 9 -23 -39 -25 -31 0 -49 3 -45 9 9 14 -19 12 -33 -2 -6 -6 -15
-9 -18 -5 -4 3 10 14 30 23 39 19 48 35 16 29 -11 -2 -20 1 -20 7 0 5 7 8 15
5 8 -4 17 -2 20 3 3 4 -1 11 -7 13 -8 3 -6 6 5 6 9 1 17 6 17 12 0 5 -6 7 -12
3 -7 -4 -10 -4 -6 1 4 4 3 14 -3 21 -6 8 -9 20 -6 27 3 8 -3 21 -14 30 -19 17
-27 43 -9 32 16 -10 12 11 -5 25 -18 15 -35 5 -35 -23 0 -26 10 -42 28 -43 33
-3 36 -5 20 -15 -22 -12 -24 -44 -3 -35 9 3 15 0 15 -8 0 -7 -10 -12 -22 -12
-20 1 -23 -5 -26 -38 -3 -30 -6 -36 -14 -25 -7 10 -8 6 -3 -14 5 -25 4 -27
-13 -18 -14 7 -18 18 -15 36 3 14 9 25 12 25 4 0 7 17 6 38 -1 20 2 42 6 47 4
6 4 17 -1 25 -7 12 -11 10 -19 -10 -5 -14 -10 -19 -10 -12 -1 7 -5 11 -10 8
-20 -13 -18 23 2 41 l22 18 -19 -22 c-15 -18 -16 -23 -5 -23 8 0 20 9 26 20
10 16 10 22 -5 36 -16 17 -16 18 1 11 11 -4 17 -2 17 8 0 8 6 15 13 15 8 0 7
4 -3 10 -10 6 -11 10 -2 10 6 0 12 5 12 11 0 8 -5 7 -16 -2 -20 -16 -42 -20
-50 -8 -3 5 -9 7 -14 4 -4 -3 -11 2 -14 11 -3 8 -2 12 4 9 6 -3 10 0 10 7 0 9
3 9 10 -2 5 -8 10 -10 10 -5 0 6 5 3 10 -5 8 -12 10 -12 10 5 0 17 2 18 11 5
9 -13 10 -13 6 0 -2 8 -13 14 -24 13 -15 -2 -22 5 -26 25 -4 22 -11 28 -31 28
-32 0 -33 -4 -3 -15 13 -5 24 -15 23 -23 0 -17 -36 -53 -36 -35 0 8 -3 7 -10
-3 -8 -12 -10 -12 -15 2 -6 16 -29 19 -40 5 -3 -4 -2 -5 1 -2 12 8 46 -17 40
-30 -3 -8 -1 -17 4 -20 6 -4 10 -11 10 -16 0 -6 -5 -7 -12 -3 -8 5 -9 2 -5 -9
10 -25 -8 -20 -22 6 -10 19 -11 19 -7 2 2 -11 7 -28 11 -37 5 -13 2 -18 -8
-18 -9 0 -22 -9 -30 -20 -8 -11 -17 -17 -21 -13 -4 4 -4 -1 0 -12 6 -14 4 -17
-9 -12 -9 3 -19 1 -23 -5 -4 -7 -3 -8 4 -4 7 4 12 3 12 -2 0 -5 -20 -8 -45 -8
-25 1 -45 4 -45 7 0 3 -11 19 -25 35 -14 16 -25 25 -25 20 0 -5 -9 -1 -21 10
-12 10 -18 26 -15 37 2 10 -2 21 -10 24 -8 3 -13 12 -10 19 3 8 0 11 -9 8 -24
-9 -38 6 -23 24 10 12 10 14 0 8 -7 -4 -12 -1 -12 8 0 22 -9 20 -30 -6 -19
-23 -19 -22 -3 14 9 20 21 36 27 35 6 -1 10 13 9 33 l-1 34 19 -24 c19 -23 20
-23 9 -2 -6 12 -8 28 -4 34 4 7 3 8 -4 4 -8 -5 -13 4 -14 28 -1 20 -2 44 -2
54 -1 9 -5 20 -9 23 -9 6 84 79 99 79 5 0 0 -7 -10 -15 -11 -8 -16 -15 -10
-15 5 0 0 -7 -10 -15 -12 -9 -15 -15 -7 -15 11 0 11 -3 1 -15 -7 -8 -16 -13
-20 -10 -11 7 -35 -24 -26 -33 4 -4 23 10 42 31 19 20 38 37 44 37 5 0 13 7
17 14 6 12 12 9 25 -14 16 -28 16 -30 -2 -40 -10 -5 -18 -19 -17 -29 1 -21 17
-18 17 2 0 7 9 18 19 24 16 10 20 9 25 -3 8 -21 8 -21 -10 -28 -15 -6 -15 -4
-3 10 12 15 12 17 0 12 -14 -4 -35 -58 -26 -66 3 -3 11 1 20 8 8 7 15 9 16 4
0 -5 5 2 10 15 9 23 10 24 24 5 9 -10 15 -14 14 -9 -1 6 -1 21 1 35 1 23 2 23
9 5 5 -11 7 -30 6 -41 -3 -27 23 -26 48 1 10 11 16 14 12 8 -4 -8 0 -13 9 -13
9 0 16 -5 16 -11 0 -5 -4 -7 -10 -4 -6 4 -7 -1 -3 -11 5 -15 7 -15 16 1 9 17
11 16 22 -5 12 -22 12 -21 10 17 -1 22 -5 46 -10 53 -4 7 -2 16 6 21 10 6 11
9 2 9 -7 0 -12 10 -12 23 1 17 2 18 6 4 2 -9 9 -14 15 -11 7 4 9 -6 6 -30 -3
-27 -1 -35 9 -32 19 8 24 -9 24 -69 0 -30 5 -55 10 -55 6 0 8 -4 5 -8 -3 -5 2
-9 10 -9 10 0 11 4 4 11 -18 18 -11 35 11 31 12 -3 24 -7 28 -11 3 -4 -2 -4
-11 -1 -10 3 -20 2 -23 -3 -4 -6 -2 -10 3 -10 5 0 13 -10 16 -22 6 -22 7 -22
20 -5 8 11 12 26 9 35 -4 9 -2 13 4 9 6 -4 13 2 16 13 3 11 1 20 -3 20 -5 0
-2 13 6 29 11 23 21 29 40 27 39 -4 48 -21 19 -34 -22 -10 -25 -9 -25 8 0 11
-5 20 -10 20 -6 0 -9 -3 -9 -7 1 -5 0 -10 -1 -13 -1 -3 -3 -14 -5 -25 -5 -37
-13 -70 -24 -98 -13 -32 -7 -49 13 -41 17 6 31 -12 16 -21 -5 -3 -10 -2 -10 4
0 6 -7 8 -15 4 -13 -5 -13 -8 5 -20 11 -8 24 -12 29 -9 5 4 12 0 14 -6 4 -10
6 -10 6 0 1 6 6 12 11 12 6 0 5 -8 -2 -19 -7 -11 -15 -18 -19 -16 -3 3 -4 -7
-1 -21 3 -18 9 -24 21 -20 10 4 7 -1 -6 -13 -23 -19 -32 -38 -13 -26 6 3 10
-1 10 -9 0 -9 5 -16 11 -16 5 0 8 -4 5 -9 -4 -5 4 -6 16 -3 19 5 20 7 6 10
-10 2 -18 11 -18 20 0 13 2 14 9 4 7 -11 9 -11 14 2 4 9 1 16 -5 16 -7 0 -3 7
8 15 10 8 13 15 7 15 -9 0 -10 7 -3 26 13 33 13 81 0 89 -6 4 -8 16 -4 27 5
18 4 18 -16 8 -26 -14 -40 -5 -20 13 10 10 11 9 5 -2 -6 -10 -4 -12 4 -7 8 5
9 12 2 20 -5 6 -6 17 -2 24 4 8 6 24 4 36 -4 17 1 25 17 29 12 3 19 10 15 16
-3 7 0 8 9 5 9 -3 16 -10 16 -14 0 -4 6 -10 14 -13 24 -9 11 24 -15 39 -13 7
-18 13 -10 14 11 0 11 3 1 15 -10 12 -10 15 3 15 9 0 18 3 21 8 7 12 -74 4
-92 -9 -15 -12 -15 -11 0 6 16 17 33 22 81 24 9 1 17 5 17 9 0 5 -13 7 -30 4
-24 -3 -30 -1 -30 13 0 17 -1 17 -20 0 -20 -18 -21 -18 -36 1 -8 10 -13 13 -9
7 3 -7 1 -13 -5 -13 -6 0 -8 -5 -4 -11 4 -7 1 -10 -7 -7 -8 3 -13 10 -12 15 3
15 -76 56 -93 49 -11 -4 -18 1 -21 15 -3 12 -11 18 -19 15 -8 -3 -14 0 -14 7
0 7 -9 18 -20 25 -18 11 -20 10 -20 -12 0 -13 7 -26 15 -30 8 -3 15 -13 15
-22 0 -9 -6 -14 -13 -11 -17 7 -38 -27 -30 -49 5 -14 8 -13 18 5 10 20 11 18
11 -18 -1 -21 -5 -43 -9 -48 -5 -4 -8 -3 -7 2 5 21 0 35 -13 35 -8 0 -13 20
-15 57 -4 68 -12 85 -12 25 0 -46 -5 -50 -38 -26 -12 8 -27 12 -34 8 -7 -4 -8
-3 -4 5 8 12 -28 51 -46 51 -4 0 -8 5 -8 11 0 5 5 7 11 4 7 -5 9 6 5 32 -3 21
-3 30 0 21 3 -10 10 -18 15 -18 5 0 9 -8 9 -17 0 -10 4 -25 10 -33 6 -10 9 -6
8 17 -1 18 -7 34 -15 37 -7 3 -13 10 -13 16 0 6 7 5 20 -2 15 -10 20 -24 20
-56 0 -28 4 -41 11 -37 6 4 7 19 4 35 -4 16 -2 31 5 35 10 6 48 -32 62 -64 5
-12 7 -11 7 6 1 34 -16 71 -40 83 -15 8 -19 9 -15 1 11 -17 -20 -13 -34 4 -11
13 -10 15 6 9 15 -4 16 -4 5 4 -8 6 -20 8 -26 6 -7 -3 -15 2 -18 10 -4 9 -13
16 -21 16 -10 0 -13 6 -10 15 4 8 10 13 14 10 5 -3 7 15 6 40 -2 25 0 45 5 45
4 0 10 8 12 18 3 9 4 1 4 -18 -1 -19 -5 -37 -9 -40 -4 -3 -3 -12 2 -19 6 -10
11 -1 17 29 9 49 29 63 41 29 8 -19 9 -20 15 -5 4 10 3 25 -2 35 -6 9 -6 23
-1 31 6 10 11 2 16 -24 4 -27 9 -34 15 -24 5 7 9 9 9 3 0 -5 8 -1 17 10 12 15
14 16 10 3 -3 -9 0 -19 9 -22 23 -9 24 -8 24 18 0 21 4 23 34 21 33 -2 34 -1
24 27 -5 15 -14 25 -20 22 -5 -3 -7 -12 -4 -20 3 -8 1 -14 -4 -14 -13 0 -13
27 0 35 6 4 6 15 -1 32 -5 14 -7 28 -5 31 11 11 55 -10 61 -28 4 -11 10 -18
15 -15 5 3 11 1 14 -4 10 -16 -11 -22 -26 -9 -7 7 -20 14 -28 16 -11 3 -10 -1
3 -16 9 -10 15 -22 12 -25 -3 -4 -2 -5 2 -2 3 3 15 -3 26 -12 11 -10 18 -13
14 -8 -3 6 -2 17 4 25 6 11 9 12 9 2 0 -7 5 -10 10 -7 5 3 10 1 10 -6 0 -7 3
-9 6 -6 4 4 2 13 -4 20 -7 8 -8 18 -4 22 4 5 1 5 -7 0 -11 -6 -13 -3 -8 16 4
13 7 28 7 32 0 5 4 5 10 2 6 -3 7 1 4 9 -10 25 -24 19 -24 -10 l0 -27 -29 34
c-24 27 -27 35 -16 42 8 4 12 15 8 25 -6 15 -5 15 11 3 12 -10 14 -16 5 -21
-11 -8 4 -23 26 -26 6 0 16 -2 23 -2 6 -1 12 -8 12 -16 0 -8 7 -17 16 -20 14
-5 14 -9 3 -24 -12 -16 -12 -16 5 0 18 15 18 18 2 33 -9 9 -16 22 -16 28 0 7
7 3 15 -7 13 -18 20 -15 16 7 0 4 4 7 10 7 7 0 8 -11 4 -30 -7 -32 8 -42 19
-13 4 10 -2 29 -14 46 -12 16 -18 32 -15 35 4 4 10 2 12 -5 2 -7 11 -9 19 -6
8 3 14 1 14 -4 0 -4 8 -13 18 -20 15 -9 19 -8 19 3 0 7 -4 11 -9 8 -4 -3 -5 2
-2 11 5 13 11 12 39 -9 18 -14 35 -22 39 -19 9 10 37 -19 32 -33 -3 -8 4 -20
16 -28 23 -17 47 -11 29 7 -6 6 -11 19 -11 29 0 10 -4 18 -10 18 -5 0 -10 10
-10 21 0 17 5 20 21 16 14 -4 22 1 28 15 6 18 9 19 14 5 7 -19 47 -43 47 -27
0 5 -6 10 -14 10 -8 0 -17 4 -21 9 -5 10 44 -1 64 -13 5 -3 12 0 14 6 4 10 8
9 16 -2 9 -13 11 -13 11 3 0 9 5 17 11 17 5 0 7 5 4 11 -4 6 -13 8 -20 5 -7
-2 -16 -2 -19 2 -10 9 -216 11 -216 1 0 -4 9 -10 19 -14 22 -7 36 -34 23 -47
-5 -5 -17 1 -27 12 -10 11 -15 20 -11 20 4 0 0 7 -8 16 -12 12 -33 15 -92 12
-41 -1 -77 -5 -80 -9 -5 -9 -58 2 -66 15 -11 16 -10 26 3 26 5 0 8 -4 4 -9 -3
-5 0 -13 6 -17 8 -5 10 1 7 20 -4 22 -3 24 9 14 8 -6 12 -16 9 -23 -2 -6 2
-12 10 -12 14 0 11 32 -6 50 -12 13 -44 15 -52 3 -5 -7 -8 -5 -8 5 0 19 -29
34 -42 21 -4 -4 3 -24 17 -44 29 -43 30 -48 9 -48 -10 0 -14 -6 -10 -15 3 -8
1 -15 -3 -15 -5 0 -12 7 -15 16 -4 9 -9 14 -13 11 -3 -4 -15 -1 -26 4 -18 10
-19 9 -14 -11 5 -20 4 -21 -12 -6 -11 10 -27 13 -46 10 -17 -3 -34 -7 -40 -8
-5 -1 -11 -5 -12 -10 0 -5 -8 -13 -17 -18 -9 -5 -16 -14 -16 -20 0 -7 5 -7 14
1 9 8 16 8 20 2 4 -5 14 -8 24 -6 14 2 17 -5 17 -41 0 -24 -3 -44 -7 -44 -7 0
-12 22 -10 41 1 4 -8 15 -19 25 -18 16 -21 17 -36 1 -16 -15 -15 -16 4 -12 17
3 20 0 16 -12 -5 -12 -3 -14 7 -8 8 5 11 4 6 -3 -3 -6 -2 -13 4 -17 6 -4 8
-11 4 -16 -4 -6 -10 -7 -17 0 -7 5 -26 8 -42 6 -25 -2 -31 2 -32 19 -2 21 -2
21 13 2 13 -19 14 -19 14 6 0 28 -16 46 -22 26 -2 -6 -10 3 -17 20 -11 26 -20
32 -45 33 -17 1 -35 1 -39 0 -5 -1 -6 3 -2 9 3 5 13 10 21 10 8 0 14 5 14 11
0 5 4 7 10 4 6 -4 7 1 3 11 -4 11 -3 15 5 10 6 -3 13 -2 17 4 3 5 1 10 -5 10
-6 0 -8 5 -4 11 4 7 12 6 23 -5 13 -13 13 -18 3 -25 -10 -6 -9 -11 4 -22 15
-12 17 -12 9 0 -6 10 -4 12 5 6 10 -6 9 -11 -4 -21 -10 -7 -13 -15 -7 -18 6
-4 8 -12 5 -19 -3 -8 4 -13 16 -13 18 0 25 14 21 39 -1 5 3 6 9 2 5 -3 10 -1
10 4 0 6 -7 11 -15 11 -14 0 -20 12 -16 33 1 4 -6 10 -14 13 -8 4 -15 10 -15
16 0 5 6 6 13 3 6 -4 3 1 -7 9 -11 9 -14 16 -7 16 7 0 9 5 6 10 -3 6 -2 10 4
10 6 0 14 -15 19 -32 5 -18 14 -32 21 -31 6 2 11 -2 11 -9 0 -6 2 -9 5 -6 3 3
-1 18 -10 34 -22 43 -18 51 11 23 l25 -24 -10 28 c-6 15 -8 33 -5 41 3 8 0 17
-7 22 -9 5 -10 2 -6 -9 3 -10 2 -17 -3 -17 -14 0 -12 22 4 43 13 17 15 16 21
-12 4 -17 11 -31 16 -31 12 0 12 0 -16 56 -27 53 -31 69 -15 59 7 -4 7 2 0 19
-9 24 -8 25 9 14 10 -6 18 -22 19 -36 0 -13 10 -34 22 -45 l23 -22 -16 27
c-12 19 -14 29 -5 34 7 5 8 2 3 -7 -5 -8 -5 -11 0 -7 4 4 15 2 24 -4 9 -7 0 6
-20 27 -34 37 -41 65 -17 65 6 0 7 -7 4 -16 -6 -14 -4 -15 10 -4 12 11 17 11
23 1 5 -7 17 -11 27 -9 10 2 18 -2 17 -9 -1 -6 4 -14 12 -17 18 -6 20 5 3 22
-8 8 -8 15 1 25 9 11 8 17 -3 27 -9 6 -20 9 -26 5 -5 -3 -10 -1 -10 4 0 6 14
11 30 11 21 0 30 5 30 16 0 8 5 12 10 9 8 -5 8 -11 0 -20 -7 -9 -6 -16 5 -25
12 -10 15 -9 15 6 0 11 3 29 6 41 6 22 5 22 -25 12 -17 -6 -31 -15 -31 -20 0
-5 -3 -8 -7 -7 -14 3 -92 -22 -98 -32 -4 -6 -20 -17 -37 -26 -25 -13 -32 -14
-39 -2 -15 22 -10 28 16 18 22 -8 25 -7 26 13 0 21 1 21 9 2 7 -17 9 -17 9 -2
1 9 8 17 17 17 8 0 12 5 9 10 -5 8 13 14 36 12 3 -1 4 11 1 25 -4 19 -2 24 7
18 8 -4 18 1 27 14 9 12 20 18 27 14 7 -4 6 0 -2 10 -7 9 -18 14 -24 10 -6 -3
-7 -1 -3 5 5 9 12 8 28 -1 16 -9 22 -9 25 0 3 9 15 8 49 -2 39 -11 43 -11 33
1 -6 7 -15 12 -19 9 -5 -3 -11 -1 -15 5 -3 5 -15 10 -26 10 -34 0 -20 18 19
24 20 3 46 8 57 10 11 2 22 5 25 5 3 1 -1 5 -9 10 -11 7 -9 10 8 16 13 4 28 1
38 -7 15 -12 15 -11 4 10 -10 19 -18 23 -39 18 -20 -5 -23 -4 -12 4 8 5 25 10
38 10 12 0 22 5 22 11 0 15 -81 3 -95 -14 -5 -7 -15 -12 -21 -12 -6 0 -33 -19
-60 -41 -27 -23 -60 -51 -74 -63 -14 -11 -19 -20 -12 -21 7 0 11 -4 7 -10 -3
-5 -12 -7 -20 -4 -14 6 -90 -48 -131 -93 -12 -13 -25 -23 -29 -23 -4 0 -13 -7
-20 -17 -16 -21 -35 -9 -35 24 0 16 7 27 20 30 11 3 20 10 20 15 0 6 -7 8 -15
5 -8 -4 -17 -1 -21 5 -5 7 -2 8 6 3 9 -6 11 -4 5 4 -5 9 -10 10 -18 2 -21 -21
-30 -11 -11 11 17 20 17 21 1 8 -16 -12 -20 -12 -28 1 -5 8 -9 19 -9 26 0 17
-93 78 -98 64 -2 -6 -9 -8 -14 -5 -7 4 -8 2 -4 -4 4 -6 12 -9 19 -6 7 2 26 -9
42 -26 33 -34 23 -41 -12 -8 -20 18 -23 19 -23 5 0 -9 5 -17 11 -17 5 0 8 -4
5 -9 -3 -4 1 -17 9 -27 20 -27 18 -40 -3 -21 -27 24 -35 21 -30 -12 2 -17 0
-27 -5 -24 -5 3 -7 19 -5 35 3 16 1 31 -4 34 -4 3 -8 -2 -8 -11 0 -15 -1 -15
-16 -1 -14 14 -34 14 -34 0 0 -3 4 -2 10 1 5 3 12 -6 16 -20 3 -14 10 -25 14
-25 5 0 6 -10 3 -22 -4 -19 -3 -20 6 -8 7 10 11 11 11 3 0 -7 8 -10 18 -7 9 3
5 -2 -10 -11 -16 -8 -28 -18 -28 -21 0 -3 4 -3 9 0 5 3 15 -2 22 -11 12 -15
12 -16 -4 -10 -10 4 -16 3 -12 -2 3 -5 1 -12 -4 -15 -11 -7 -29 41 -25 67 1 9
-2 15 -7 11 -5 -3 -12 2 -15 10 -3 9 -9 14 -13 13 -3 -2 -14 4 -23 15 -10 10
-13 18 -8 18 6 0 9 6 8 13 -2 6 4 11 12 9 11 -3 9 2 -5 18 l-19 21 -20 -22
c-15 -15 -17 -23 -8 -26 6 -3 12 -9 12 -14 0 -5 -13 -3 -30 6 -34 17 -44 19
-35 5 3 -5 2 -10 -3 -10 -6 0 -13 7 -16 16 -8 21 -8 26 3 20 5 -3 15 2 22 12
12 15 12 16 -1 5 -10 -8 -21 -9 -30 -3 -12 8 -12 10 4 10 15 0 16 2 6 15 -7 9
-19 14 -26 11 -6 -2 -14 3 -17 13 -7 27 -35 21 -42 -8 -6 -23 -8 -24 -17 -8
-7 13 -6 23 4 34 11 14 11 16 -1 8 -11 -6 -13 -4 -7 11 5 10 9 25 9 32 0 17
22 9 23 -9 3 -37 4 -38 33 -29 16 4 32 6 35 3 2 -3 11 -1 18 3 9 6 2 11 -22
15 -29 5 -24 7 25 8 43 1 56 4 45 11 -8 5 -25 10 -37 10 -28 0 -29 8 -5 27 9
8 12 12 5 9 -6 -4 -13 0 -16 6 -3 9 -10 7 -21 -7 -8 -11 -16 -18 -16 -15 -11
46 -4 73 11 49 4 -7 12 -10 16 -5 11 10 -28 38 -45 31 -7 -2 -10 0 -7 5 3 6
-1 10 -9 10 -9 0 -16 9 -16 20 0 23 22 23 32 0 4 -10 7 -6 7 13 1 15 -3 27 -8
27 -4 0 -6 12 -3 26 3 19 1 25 -7 20 -6 -4 -11 -19 -11 -33 0 -37 -7 -25 -11
17 -2 19 -7 41 -12 47 -6 8 -3 28 7 53 17 44 21 63 7 42 -7 -11 -9 -11 -14 2
-5 11 -1 16 13 16 11 0 20 4 20 8 0 5 -13 7 -29 4 -16 -2 -32 1 -36 7 -3 6 -3
11 2 10 19 -3 23 2 13 21 -7 14 -8 26 -1 38 8 14 11 14 12 2 1 -8 1 -22 0 -30
-1 -11 2 -10 14 4 10 13 11 23 5 31 -5 7 -7 14 -4 18 3 3 -2 4 -12 3 -10 -2
-20 -11 -24 -21 -6 -18 -7 -18 -14 1 -4 11 -3 20 3 22 6 2 11 8 11 13 0 6 -5
7 -12 3 -7 -4 -8 -3 -4 4 4 6 13 9 21 6 21 -8 28 17 15 51 -10 26 -12 27 -24
10 -12 -17 -13 -16 -12 6 1 13 5 27 10 30 4 4 4 9 -2 13 -5 3 -13 -2 -16 -11z
m42 -78 c-3 -3 -9 2 -12 12 -6 14 -5 15 5 6 7 -7 10 -15 7 -18z m9 -347 c-3
-8 -6 -5 -6 6 -1 11 2 17 5 13 3 -3 4 -12 1 -19z m-15 -51 c2 -12 -1 -36 -8
-52 l-13 -30 -1 32 c0 17 -5 35 -10 38 -8 5 -7 11 1 21 16 20 26 17 31 -9z
m38 -98 c0 -6 -4 -7 -10 -4 -5 3 -10 1 -10 -6 0 -7 -3 -10 -6 -6 -10 10 5 39
16 32 5 -3 10 -11 10 -16z m60 -29 c0 -5 -2 -10 -4 -10 -3 0 -8 5 -11 10 -3 6
-1 10 4 10 6 0 11 -4 11 -10z m773 -15 c-5 -15 -27 -26 -59 -30 l-21 -3 20 23
c22 24 69 32 60 10z m-813 -79 c0 -3 -4 -8 -10 -11 -5 -3 -10 -1 -10 4 0 6 5
11 10 11 6 0 10 -2 10 -4z m-5 -45 c3 -5 0 -13 -6 -17 -7 -4 -9 -3 -5 4 3 5 0
13 -6 15 -9 4 -10 6 -1 6 6 1 14 -3 18 -8z m153 -7 c-1 -5 -9 -9 -16 -10 -10
-2 -11 1 -1 12 12 14 24 13 17 -2z m-714 -10 c4 -10 2 -13 -6 -8 -7 4 -8 3 -4
-4 4 -7 1 -12 -9 -12 -13 0 -14 4 -5 20 13 24 16 25 24 4z m892 -3 c29 5 55
-29 53 -69 0 -12 -3 -10 -10 6 -8 21 -10 22 -25 8 -8 -9 -21 -13 -27 -9 -8 5
-8 8 1 11 9 3 6 15 -10 40 -15 25 -17 33 -6 24 9 -7 20 -12 24 -11z m-816 -34
c0 -16 -18 3 -23 25 -6 22 -5 22 8 4 8 -11 15 -24 15 -29z m417 22 c1 -11 -5
-23 -13 -26 -7 -3 -12 -8 -10 -12 3 -4 1 -13 -5 -21 -7 -12 -9 -10 -9 8 0 12
7 25 15 28 21 9 19 27 -2 20 -15 -5 -15 -4 1 9 11 8 20 15 21 15 0 0 1 -9 2
-21z m-451 -11 c13 -39 13 -47 -2 -41 -9 3 -12 13 -9 27 5 18 5 19 -5 4 -13
-21 -30 -24 -30 -5 0 14 19 37 31 37 4 0 11 -10 15 -22z m1154 7 c0 -8 -4 -15
-10 -15 -5 0 -10 7 -10 15 0 8 5 15 10 15 6 0 10 -7 10 -15z m-565 -25 c3 -5
1 -10 -4 -10 -6 0 -11 5 -11 10 0 6 2 10 4 10 3 0 8 -4 11 -10z m238 -51 c-7
-7 -14 0 -22 22 -15 44 -14 46 10 15 15 -18 18 -31 12 -37z m-749 33 c-6 -4
-16 -17 -23 -29 -7 -14 -17 -20 -26 -17 -22 9 -19 17 13 36 26 17 59 26 36 10z
m566 -2 c4 0 18 -17 30 -37 17 -29 23 -34 32 -22 8 12 9 12 5 -1 -6 -21 12
-52 25 -44 6 4 8 3 5 -3 -4 -6 0 -13 8 -17 19 -7 20 -32 1 -39 -8 -3 -19 5
-26 18 -7 14 -17 22 -21 19 -4 -2 -10 0 -14 6 -4 6 -11 8 -16 5 -5 -4 -9 -2
-9 4 0 5 -3 16 -6 25 -3 9 -2 16 4 16 5 0 12 -9 15 -20 3 -11 10 -20 16 -20
21 0 11 18 -31 59 -29 29 -47 39 -60 35 -10 -3 -18 0 -18 6 0 6 5 8 10 5 6 -3
10 -1 10 5 0 7 7 9 16 6 9 -3 19 -6 24 -6z m415 0 c3 -6 -1 -7 -9 -4 -18 7
-21 14 -7 14 6 0 13 -4 16 -10z m-525 -18 c0 -5 -7 -9 -15 -9 -8 0 -12 4 -9 9
3 4 9 8 15 8 5 0 9 -4 9 -8z m643 -22 c3 -11 4 -20 3 -20 -2 0 -11 9 -21 20
-15 17 -16 20 -3 20 9 0 18 -9 21 -20z m-1103 -12 c0 -16 -3 -19 -11 -11 -6 6
-8 16 -5 22 11 17 16 13 16 -11z m554 -3 c-4 -8 -11 -12 -17 -8 -8 5 -7 8 1
11 7 2 9 9 6 14 -4 7 -2 8 4 4 6 -4 9 -13 6 -21z m274 6 c3 -9 -2 -11 -18 -6
-17 5 -21 4 -15 -5 5 -8 4 -11 -3 -6 -16 10 -4 34 16 32 9 -2 18 -8 20 -15z
m132 -11 c0 -4 -6 -10 -14 -13 -12 -5 -14 2 -7 31 2 7 21 -10 21 -18z m-890
-5 c0 -11 -29 -11 -33 -1 -4 10 1 12 14 9 10 -3 19 -7 19 -8z m666 6 c-4 -5
-1 -11 6 -13 7 -3 8 -7 2 -11 -5 -3 -15 3 -22 14 -10 16 -9 19 4 19 8 0 13 -4
10 -9z m133 -20 c-8 -2 -20 -10 -27 -18 -17 -17 -27 -17 -42 1 -10 13 -7 14
16 10 16 -3 25 -2 21 2 -4 4 -2 13 4 21 9 10 15 11 26 1 12 -10 13 -13 2 -17z
m-349 9 c0 -5 -7 -10 -15 -10 -8 0 -15 -8 -15 -17 0 -16 2 -16 11 -3 9 13 10
12 5 -2 -3 -10 -1 -18 3 -18 5 0 8 -8 6 -17 -2 -10 -4 -18 -5 -18 -1 0 -3 -35
-5 -77 -2 -43 0 -78 3 -78 7 0 8 -52 3 -95 l-2 -20 -9 20 c-5 11 -9 76 -9 145
1 69 -2 138 -6 154 -6 19 -3 31 6 37 19 12 29 11 29 -1z m-580 -15 c0 -8 -2
-15 -4 -15 -2 0 -6 7 -10 15 -3 8 -1 15 4 15 6 0 10 -7 10 -15z m530 -27 c0
-4 -4 -8 -10 -8 -5 0 -10 9 -10 21 0 13 -4 18 -12 13 -7 -5 -8 -3 -3 6 6 10
11 9 22 -5 7 -11 13 -22 13 -27z m327 -22 c-14 -14 -97 -21 -97 -9 0 11 20 40
20 29 0 -5 7 -3 15 4 8 6 19 9 25 5 5 -3 10 -1 10 6 0 8 7 6 20 -6 15 -13 16
-20 7 -29z m99 28 c-8 -8 -21 -14 -28 -13 -10 0 -10 2 0 6 6 2 10 8 8 12 -3 4
4 8 15 8 17 2 17 0 5 -13z m-966 -9 c9 -10 16 -12 25 -5 8 7 11 0 10 -25 -2
-41 -15 -60 -15 -23 0 17 -10 34 -27 47 -16 11 -23 21 -17 21 6 0 17 -7 24
-15z m440 0 c0 -9 -6 -12 -16 -8 -13 5 -13 7 -2 14 17 11 18 11 18 -6z m187
-14 c-3 -12 1 -22 9 -25 8 -3 14 -13 14 -23 0 -14 -2 -15 -9 -5 -4 8 -11 13
-15 13 -3 -1 -6 2 -5 5 0 4 -5 11 -13 15 -10 7 -10 9 0 9 6 0 12 7 12 15 0 8
3 15 6 15 4 0 4 -9 1 -19z m-89 -39 c-1 -15 2 -34 6 -42 4 -8 0 -6 -8 5 -9 11
-14 25 -12 32 3 7 1 13 -4 13 -5 0 -7 7 -4 15 9 23 24 7 22 -23z m162 16 c0
-5 -4 -6 -10 -3 -5 3 -10 -1 -10 -10 0 -9 5 -13 10 -10 6 3 10 1 10 -5 0 -8 7
-9 18 -5 28 12 62 14 62 4 0 -5 4 -9 10 -9 5 0 7 8 4 18 -5 13 -4 14 4 3 7 -9
12 -10 16 -2 8 13 26 15 26 3 0 -5 -12 -14 -26 -21 -17 -7 -24 -17 -20 -27 3
-8 2 -12 -3 -9 -5 3 -12 1 -15 -4 -3 -5 -14 -8 -24 -6 -9 1 -11 0 -4 -2 7 -3
10 -9 6 -14 -3 -5 -10 -6 -16 -3 -6 4 -8 2 -5 -3 4 -6 0 -16 -8 -23 -8 -7 -15
-9 -15 -5 0 4 -6 2 -14 -5 -8 -6 -12 -18 -9 -26 3 -8 0 -14 -6 -14 -6 0 -11 6
-12 13 0 6 -5 -1 -11 -18 -21 -60 -53 -76 -45 -22 8 49 42 139 52 137 5 -1 11
4 14 11 2 7 -1 9 -9 4 -10 -6 -12 -1 -7 23 4 20 2 32 -4 32 -6 0 -8 4 -5 9 7
11 46 2 46 -11z m320 12 c0 -5 -2 -10 -4 -10 -3 0 -8 5 -11 10 -3 6 -1 10 4
10 6 0 11 -4 11 -10z m40 -27 c0 -26 -16 -12 -18 15 -1 21 0 23 8 12 5 -8 10
-21 10 -27z m-656 -5 c-4 -13 -7 -29 -6 -35 2 -7 -4 -13 -12 -13 -16 0 -14 14
7 57 13 29 21 22 11 -9z m30 -3 c3 -8 1 -15 -4 -15 -6 0 -10 7 -10 15 0 8 2
15 4 15 2 0 6 -7 10 -15z m31 -4 c3 -5 1 -12 -5 -16 -5 -3 -10 1 -10 9 0 18 6
21 15 7z m157 -18 c13 -15 14 -26 5 -65 -6 -27 -14 -48 -17 -48 -12 0 -9 94 3
102 8 5 7 8 -5 8 -10 0 -18 5 -18 10 0 15 15 12 32 -7z m-198 -25 l-7 -23 24
20 23 20 -17 -27 c-21 -34 -23 -50 -2 -21 16 22 16 22 35 3 21 -21 26 -40 11
-40 -5 0 -12 8 -16 18 -6 15 -8 14 -19 -7 -7 -12 -11 -34 -8 -47 6 -34 -14
-30 -30 6 -7 17 -19 30 -26 30 -9 0 -8 -7 5 -26 17 -26 17 -27 -3 -16 -11 6
-26 18 -33 26 -8 9 -16 14 -20 12 -4 -3 -8 6 -9 20 -2 26 15 33 24 9 4 -9 19
-15 35 -15 16 0 29 -5 29 -12 0 -6 3 -8 7 -5 3 4 -1 15 -11 26 -14 15 -15 23
-5 45 15 32 23 34 13 4z m-90 -9 c-6 -11 -24 -2 -24 11 0 5 7 7 15 4 8 -4 12
-10 9 -15z m167 -2 c-13 -13 -26 -3 -16 12 3 6 11 8 17 5 6 -4 6 -10 -1 -17z
m414 -32 c21 -30 35 -58 31 -62 -13 -14 -33 -10 -44 8 -15 23 -6 25 15 4 8 -9
18 -14 20 -11 6 6 -29 66 -38 66 -3 0 -11 11 -17 25 -18 39 -8 30 33 -30z m85
45 c0 8 3 11 6 7 3 -3 1 -13 -4 -23 -9 -16 -11 -15 -22 7 -12 22 -12 23 3 10
14 -11 17 -11 17 -1z m-616 -36 c4 -10 1 -14 -6 -12 -15 5 -23 28 -10 28 5 0
13 -7 16 -16z m406 -25 c0 -18 -2 -19 -15 -9 -12 10 -15 10 -15 -3 0 -25 16
-28 40 -7 25 22 36 20 27 -5 -4 -8 -16 -15 -27 -15 -11 0 -20 -6 -20 -13 0 -8
7 -14 15 -14 8 0 12 4 10 8 -3 4 2 9 10 13 13 5 45 -17 45 -32 0 -3 -5 -1 -12
6 -7 7 -16 12 -22 12 -5 0 1 -9 14 -20 12 -11 26 -17 31 -15 4 3 11 1 14 -5 4
-6 3 -10 -2 -9 -4 1 -26 -6 -48 -15 -22 -10 -60 -26 -84 -37 -25 -11 -53 -16
-67 -13 -21 5 -22 9 -12 28 10 19 10 20 -5 7 -10 -7 -17 -20 -17 -27 0 -8 -7
-14 -15 -14 -9 0 -20 -12 -26 -26 -5 -15 -12 -24 -15 -21 -8 8 35 87 51 94 8
3 15 11 15 18 0 7 4 15 8 17 4 2 18 18 31 36 12 18 27 30 32 27 5 -4 6 0 3 8
-3 9 4 22 18 31 30 21 38 20 38 -5z m60 -24 c-13 -12 -15 -11 -15 15 0 26 2
28 15 15 13 -13 13 -17 0 -30z m-380 10 c0 -8 -4 -15 -10 -15 -5 0 -7 7 -4 15
4 8 8 15 10 15 2 0 4 -7 4 -15z m54 -31 c3 -9 6 -36 6 -60 0 -38 -3 -44 -21
-44 -16 0 -20 5 -16 19 3 13 0 18 -8 15 -23 -9 -26 27 -4 57 23 33 34 36 43
13z m361 6 c3 -5 1 -10 -4 -10 -6 0 -11 5 -11 10 0 6 2 10 4 10 3 0 8 -4 11
-10z m772 -32 c-3 -8 -6 -5 -6 6 -1 11 2 17 5 13 3 -3 4 -12 1 -19z m-282 -18
c3 -6 -1 -7 -9 -4 -18 7 -21 14 -7 14 6 0 13 -4 16 -10z m-135 -20 c6 -11 7
-20 3 -20 -5 0 -14 9 -21 20 -7 11 -8 20 -2 20 5 0 14 -9 20 -20z m-260 -3 c0
-4 -4 -6 -9 -2 -16 9 -24 -15 -10 -31 7 -9 13 -24 14 -34 1 -17 -5 -18 -72
-14 -45 3 -80 0 -91 -6 -13 -9 -13 -10 -1 -7 8 3 24 -2 35 -12 10 -9 17 -15
15 -14 -2 1 -11 -7 -21 -19 -15 -19 -17 -19 -23 -5 -4 10 -2 16 5 14 6 -1 13
4 15 11 6 14 -18 12 -30 -3 -4 -6 -13 -3 -22 9 -8 11 -17 18 -19 15 -2 -2 13
-24 35 -47 39 -44 48 -62 29 -62 -5 0 -10 5 -10 12 0 6 -3 8 -7 5 -3 -4 -13
-1 -21 6 -12 9 -16 9 -19 0 -4 -10 -9 -10 -26 -1 -12 7 -34 12 -49 11 -34 0
-35 8 -7 33 22 19 22 19 9 -5 l-12 -23 26 18 c14 11 26 23 26 27 0 5 6 5 13 1
9 -5 9 -4 0 6 -17 18 -101 -14 -113 -44 -7 -18 -9 -18 -9 -3 -1 10 -6 15 -11
12 -6 -4 -7 -12 -4 -18 4 -7 3 -9 -1 -4 -13 11 -17 47 -6 47 6 0 13 -5 16 -10
4 -6 19 -1 38 13 46 34 134 81 190 102 26 10 47 20 47 24 0 3 18 6 40 6 22 1
40 -3 40 -8z m-370 -16 c0 -5 -6 -14 -14 -20 -12 -10 -13 -8 -9 8 5 21 23 30
23 12z m388 -26 c-3 -3 -9 2 -12 12 -6 14 -5 15 5 6 7 -7 10 -15 7 -18z m-436
-10 c3 -14 1 -28 -3 -31 -5 -3 -9 9 -9 25 0 38 6 40 12 6z m615 -7 c-3 -7 -5
-2 -5 12 0 14 2 19 5 13 2 -7 2 -19 0 -25z m20 0 c-3 -8 -6 -5 -6 6 -1 11 2
17 5 13 3 -3 4 -12 1 -19z m-200 -20 c-3 -8 -6 -5 -6 6 -1 11 2 17 5 13 3 -3
4 -12 1 -19z m223 3 c0 -13 -6 -19 -20 -18 -18 1 -18 2 -2 18 22 23 22 23 22
0z m-572 -26 c-3 -3 -9 2 -12 12 -6 14 -5 15 5 6 7 -7 10 -15 7 -18z m-308
-33 c26 -10 18 -18 -25 -24 -11 -2 -22 -5 -25 -9 -3 -3 -22 -15 -43 -28 -32
-20 -40 -21 -54 -9 -15 11 -16 11 -10 -4 3 -10 2 -20 -3 -23 -6 -4 -10 2 -11
12 0 11 -3 13 -6 5 -4 -10 -8 -10 -19 -1 -16 13 -18 5 -4 -21 7 -14 6 -20 -7
-24 -9 -4 -21 -1 -27 5 -8 9 -8 10 2 5 15 -9 16 10 1 19 -6 4 -8 14 -4 22 3 9
-2 28 -10 42 l-16 26 21 -24 c11 -13 18 -31 15 -40 -4 -12 -2 -12 9 2 10 13
15 15 19 5 2 -7 7 -10 11 -7 4 3 2 18 -3 33 -9 21 -8 26 4 26 8 0 14 -3 14 -7
-4 -25 4 -39 22 -40 19 -2 19 0 8 15 -8 9 -20 27 -26 39 l-13 23 78 -4 c42 -3
88 -9 102 -14z m590 -2 c0 -5 -5 -10 -11 -10 -5 0 -7 5 -4 10 3 6 8 10 11 10
2 0 4 -4 4 -10z m-53 -11 c6 -6 9 -19 5 -28 -8 -21 -32 -45 -32 -32 0 5 5 13
10 16 6 3 10 16 10 28 0 20 0 20 -14 1 -15 -19 -15 -19 -11 1 5 26 4 25 13 25
4 0 13 -5 19 -11z m-746 -16 c13 -16 12 -17 -3 -4 -10 7 -18 15 -18 17 0 8 8
3 21 -13z m-58 -6 c3 -8 -1 -14 -9 -14 -15 0 -18 9 -7 20 9 9 10 9 16 -6z
m342 3 c8 -12 -13 -51 -36 -68 -10 -7 -16 -19 -13 -26 3 -8 1 -17 -5 -21 -7
-3 -8 0 -5 10 5 11 2 14 -12 8 -12 -4 -15 -3 -10 5 4 7 -3 29 -15 49 -13 20
-17 33 -11 29 7 -4 12 -3 12 3 0 17 85 27 95 11z m502 -5 c-4 -8 -2 -17 3 -20
6 -4 10 -12 10 -18 0 -7 -4 -6 -10 3 -8 12 -10 10 -11 -10 -1 -17 -3 -20 -6
-7 -2 9 -8 15 -13 12 -5 -3 -3 8 3 25 6 16 15 30 20 30 5 0 7 -7 4 -15z m20
-7 c-3 -8 -6 -5 -6 6 -1 11 2 17 5 13 3 -3 4 -12 1 -19z m38 -9 c-6 -45 -13
-47 -12 -5 1 20 4 36 8 36 4 0 6 -14 4 -31z m-275 -21 c0 -10 3 -9 9 1 6 9 11
10 15 2 4 -6 12 -9 17 -6 5 4 9 0 9 -8 0 -12 -9 -12 -52 -4 -40 8 -47 12 -32
18 28 11 34 10 34 -3z m311 -1 c-1 -4 -1 -17 -1 -29 0 -43 -14 -52 -49 -34
-30 16 -40 39 -22 51 5 3 17 -5 26 -17 10 -13 15 -16 12 -8 -6 19 11 52 24 48
6 -2 10 -7 10 -11z m-229 -11 c7 5 8 2 4 -5 -9 -14 25 -12 35 2 11 15 41 -5
36 -24 -6 -24 2 -24 20 -1 14 16 14 16 9 -2 -6 -16 -4 -17 9 -6 18 15 21 -1 5
-30 -7 -13 -7 -21 0 -25 6 -3 13 1 16 9 10 26 23 18 18 -10 -3 -16 -1 -23 6
-19 5 3 10 13 10 21 0 17 24 19 37 2 5 -7 8 -23 7 -35 -1 -13 -2 -30 -3 -39 0
-8 -5 -13 -11 -9 -5 3 -6 13 -3 23 5 13 3 15 -7 5 -10 -9 -22 -4 -58 23 -25
19 -49 34 -55 34 -5 0 -6 8 -3 17 4 10 4 15 1 11 -4 -3 -20 -2 -37 4 -22 8
-27 13 -16 20 10 7 10 9 -2 7 -29 -3 -36 1 -37 24 0 12 1 16 4 9 3 -6 10 -9
15 -6z m-858 -12 c3 -8 2 -12 -4 -9 -6 3 -10 10 -10 16 0 14 7 11 14 -7z m856
-37 c25 -12 49 -20 53 -19 5 1 6 -2 3 -7 -4 -5 0 -11 6 -14 18 -6 -4 -29 -45
-45 -18 -7 -22 -10 -9 -8 12 2 22 -1 22 -7 0 -7 7 -4 15 6 7 10 22 17 32 15
14 -3 10 -8 -19 -26 -21 -13 -38 -28 -38 -33 0 -6 -5 -7 -10 -4 -8 5 -7 12 2
23 11 13 11 15 -3 10 -11 -4 -22 7 -39 41 -13 25 -35 59 -49 75 l-26 29 30 -7
c17 -4 50 -17 75 -29z m-280 -7 c0 -5 -4 -10 -10 -10 -5 0 -10 5 -10 10 0 6 5
10 10 10 6 0 10 -4 10 -10z m53 -11 c-5 -19 -30 -32 -44 -23 -5 3 -5 13 1 24
13 24 49 23 43 -1z m-330 -24 c-3 -9 -8 -14 -10 -11 -3 3 -2 9 2 15 9 16 15
13 8 -4z m807 1 c0 -3 -4 -8 -10 -11 -5 -3 -10 -1 -10 4 0 6 5 11 10 11 6 0
10 -2 10 -4z m-856 -48 c-4 -6 -10 -5 -15 3 -14 22 -10 33 6 19 8 -7 12 -17 9
-22z m-30 7 c3 -8 1 -15 -4 -15 -6 0 -10 7 -10 15 0 8 2 15 4 15 2 0 6 -7 10
-15z m991 -15 c3 -6 -1 -7 -9 -4 -18 7 -21 14 -7 14 6 0 13 -4 16 -10z m-245
-4 c0 -3 -4 -8 -10 -11 -5 -3 -10 -1 -10 4 0 6 5 11 10 11 6 0 10 -2 10 -4z
m2 -29 c-12 -7 -20 -16 -16 -19 3 -4 -3 -11 -14 -17 -11 -6 -22 -7 -26 -4 -3
3 -6 1 -6 -6 0 -7 10 -10 28 -7 15 2 30 5 34 5 4 1 9 11 11 24 4 20 4 21 6 1
0 -12 -12 -32 -29 -47 -33 -30 -45 -34 -37 -13 4 10 1 13 -7 10 -18 -7 -29 25
-16 41 6 7 7 15 3 17 -10 6 7 2 32 -7 l20 -8 -20 17 c-11 10 -14 15 -8 11 7
-3 21 -1 30 4 10 6 23 10 28 10 6 0 0 -5 -13 -12z m-832 -57 c0 -5 -9 -6 -20
-3 -11 3 -20 9 -20 13 0 5 9 6 20 3 11 -3 20 -9 20 -13z m1287 -75 c0 -8 -4
-12 -9 -9 -5 3 -6 10 -3 15 9 13 12 11 12 -6z m-282 -13 c-3 -3 -11 0 -18 7
-9 10 -8 11 6 5 10 -3 15 -9 12 -12z m276 -62 c6 0 7 -5 3 -11 -4 -8 -9 -7
-15 2 -5 8 -9 9 -9 4 0 -6 7 -21 16 -33 15 -22 15 -22 -10 -11 -21 10 -23 15
-15 35 5 13 9 26 9 29 0 28 4 35 7 13 2 -16 9 -28 14 -28z m-39 18 c-2 -10 -6
-18 -7 -18 -1 0 -5 8 -7 18 -3 11 0 19 7 19 7 0 10 -8 7 -19z m-12 -46 c0 -7
-4 -10 -10 -7 -5 3 -10 16 -10 28 0 18 2 19 10 7 5 -8 10 -21 10 -28z m114
-70 c-18 -51 -17 -62 6 -62 26 0 54 -43 46 -73 -3 -13 -13 -24 -22 -24 -15 0
-15 2 1 14 18 12 18 13 0 33 -10 11 -21 17 -26 15 -4 -3 -10 4 -14 15 -3 11
-11 20 -17 20 -5 0 -7 7 -4 16 3 8 2 12 -4 9 -6 -4 -7 2 -1 18 6 14 7 28 4 31
-4 3 0 6 7 6 7 0 10 3 7 7 -4 3 -2 12 5 20 19 23 27 -5 12 -45z m-77 -14 c-3
-8 -6 -5 -6 6 -1 11 2 17 5 13 3 -3 4 -12 1 -19z m-483 -62 c-3 -9 3 -17 16
-21 12 -4 19 -9 17 -11 -6 -7 -57 18 -57 27 0 6 8 11 27 18 1 1 0 -5 -3 -13z
m391 -26 c-3 -5 -12 -10 -18 -10 -7 0 -6 4 3 10 19 12 23 12 15 0z m-409 -22
c5 4 5 3 1 -3 -4 -5 -20 -11 -34 -13 -23 -3 -25 -1 -13 13 9 10 16 12 25 5 6
-5 16 -6 21 -2z m511 -40 c-3 -8 -6 -5 -6 6 -1 11 2 17 5 13 3 -3 4 -12 1 -19z
m173 -18 c0 -5 -4 -10 -10 -10 -5 0 -10 5 -10 10 0 6 5 10 10 10 6 0 10 -4 10
-10z m-270 -25 c-6 -8 -9 -19 -5 -25 3 -5 2 -10 -3 -10 -19 0 -21 14 -5 32 19
21 31 25 13 3z m390 -5 c0 -5 -5 -10 -11 -10 -5 0 -7 5 -4 10 3 6 8 10 11 10
2 0 4 -4 4 -10z m-440 -14 c0 -2 -12 -12 -27 -21 l-28 -18 19 21 c17 20 36 29
36 18z m67 -38 c2 -17 0 -19 -7 -8 -5 8 -6 18 -4 22 8 12 10 10 11 -14z m-477
-2 c0 -2 -8 -10 -17 -17 -16 -13 -17 -12 -4 4 13 16 21 21 21 13z m250 0 c0
-3 -4 -8 -10 -11 -5 -3 -10 -1 -10 4 0 6 5 11 10 11 6 0 10 -2 10 -4z m-475
-84 c-3 -3 -11 0 -18 7 -9 10 -8 11 6 5 10 -3 15 -9 12 -12z m515 -12 c-9 -6
-17 -5 -22 3 -9 15 14 29 27 16 6 -6 5 -13 -5 -19z m410 -14 c0 -2 -7 -7 -16
-10 -8 -3 -12 -2 -9 4 6 10 25 14 25 6z m-73 -28 c-3 -8 -6 -5 -6 6 -1 11 2
17 5 13 3 -3 4 -12 1 -19z m221 0 c-2 -9 8 -12 30 -10 17 1 32 -2 32 -8 0 -5
-7 -6 -17 -3 -11 4 -14 3 -9 -5 10 -16 3 -15 -39 5 -35 17 -34 22 3 32 1 1 1
-5 0 -11z m-118 -9 c0 -5 -9 -9 -20 -9 -11 0 -20 4 -20 8 0 4 9 8 20 9 11 1
20 -2 20 -8z m57 -31 c-3 -7 -5 -2 -5 12 0 14 2 19 5 13 2 -7 2 -19 0 -25z
m13 -62 c0 -5 -7 -3 -15 4 -8 7 -12 17 -9 22 7 10 24 -9 24 -26z m34 -31 c-4
-8 -10 -12 -15 -9 -14 8 -10 24 6 24 9 0 12 -6 9 -15z m112 -22 c-3 -27 -28
-73 -37 -68 -6 5 26 85 35 85 2 0 3 -8 2 -17z m-1506 -794 c0 -6 -4 -7 -10 -4
-5 3 -10 11 -10 16 0 6 5 7 10 4 6 -3 10 -11 10 -16z"/>
<path d="M1020 3530 c0 -5 5 -10 11 -10 5 0 7 5 4 10 -3 6 -8 10 -11 10 -2 0
-4 -4 -4 -10z"/>
<path d="M890 3356 c0 -2 7 -6 15 -10 8 -3 15 -1 15 4 0 6 -7 10 -15 10 -8 0
-15 -2 -15 -4z"/>
<path d="M1000 3370 c-12 -8 -10 -10 8 -10 13 0 20 4 17 10 -7 12 -6 12 -25 0z"/>
<path d="M884 3274 c-18 -14 -18 -15 4 -4 12 6 22 13 22 15 0 8 -5 6 -26 -11z"/>
<path d="M980 3126 c0 -2 8 -10 18 -17 15 -13 16 -12 3 4 -13 16 -21 21 -21
13z"/>
<path d="M907 2953 c-3 -5 -2 -15 4 -23 6 -11 9 -12 9 -2 0 7 4 11 8 8 4 -2
14 -1 22 5 9 5 10 9 3 9 -6 0 -18 3 -26 6 -8 3 -17 1 -20 -3z"/>
<path d="M370 2960 c0 -5 5 -10 11 -10 5 0 7 5 4 10 -3 6 -8 10 -11 10 -2 0
-4 -4 -4 -10z"/>
<path d="M500 2901 c0 -5 8 -15 18 -22 15 -12 16 -12 5 2 -7 9 -10 19 -6 22 3
4 1 7 -5 7 -7 0 -12 -4 -12 -9z"/>
<path d="M1130 2780 c0 -5 5 -10 10 -10 6 0 10 5 10 10 0 6 -4 10 -10 10 -5 0
-10 -4 -10 -10z"/>
<path d="M954 2774 c-18 -14 -18 -14 6 -3 31 14 36 19 24 19 -6 0 -19 -7 -30
-16z"/>
<path d="M650 3970 c0 -5 5 -10 11 -10 5 0 7 5 4 10 -3 6 -8 10 -11 10 -2 0
-4 -4 -4 -10z"/>
<path d="M1097 3931 c3 -14 -2 -20 -24 -26 -15 -4 -22 -10 -15 -12 6 -3 9 -10
5 -16 -3 -7 6 -1 20 12 28 25 34 45 18 55 -5 4 -7 -2 -4 -13z"/>
<path d="M1120 3929 c0 -5 5 -7 10 -4 6 3 10 8 10 11 0 2 -4 4 -10 4 -5 0 -10
-5 -10 -11z"/>
<path d="M1146 3912 c-3 -6 3 -12 15 -15 12 -3 19 -1 16 6 -5 15 -24 20 -31 9z"/>
<path d="M1098 3879 c-31 -23 -37 -46 -12 -46 10 0 14 7 11 18 -3 11 0 16 8
13 7 -3 15 4 18 15 3 12 4 21 4 21 -1 0 -14 -10 -29 -21z"/>
<path d="M1180 3869 c0 -5 5 -7 10 -4 6 3 10 8 10 11 0 2 -4 4 -10 4 -5 0 -10
-5 -10 -11z"/>
<path d="M1030 3854 c0 -8 5 -12 10 -9 6 4 8 11 5 16 -9 14 -15 11 -15 -7z"/>
<path d="M1042 3820 c-7 -12 -8 -20 -2 -20 5 0 10 4 10 9 0 5 10 7 23 5 12 -2
15 -1 7 2 -8 4 -17 11 -20 15 -3 5 -11 -1 -18 -11z"/>
<path d="M1010 3819 c0 -5 5 -7 10 -4 6 3 10 8 10 11 0 2 -4 4 -10 4 -5 0 -10
-5 -10 -11z"/>
<path d="M565 3795 c-5 -11 -10 -24 -13 -30 -3 -5 3 -3 13 7 9 9 15 22 12 30
-3 9 -7 7 -12 -7z"/>
<path d="M1088 3778 c5 -5 16 -8 23 -6 8 3 3 7 -10 11 -17 4 -21 3 -13 -5z"/>
<path d="M976 3758 c-12 -17 -13 -24 -3 -30 9 -6 9 -8 0 -8 -7 0 -13 -8 -14
-17 -1 -12 -4 -10 -9 7 l-8 25 -1 -27 c-1 -16 -6 -28 -12 -28 -5 0 -7 -4 -4
-10 3 -5 11 -10 16 -10 6 0 8 4 5 9 -6 9 18 23 44 25 8 1 27 -7 41 -16 20 -13
25 -23 21 -43 -4 -22 -7 -24 -21 -13 -13 10 -14 10 -4 -2 21 -23 51 -22 58 1
4 12 3 24 -2 28 -6 3 -15 16 -21 28 -7 12 -25 24 -41 28 -34 7 -45 28 -31 56
14 26 5 24 -14 -3z m95 -141 c-10 -9 -11 -8 -5 6 3 10 9 15 12 12 3 -3 0 -11
-7 -18z"/>
<path d="M843 3674 c0 -7 3 -11 7 -9 11 7 27 -9 35 -34 5 -18 4 -22 -6 -16
-12 7 -12 5 -1 -6 11 -12 14 -12 22 1 5 8 10 10 10 4 0 -19 -25 -35 -38 -24
-9 7 -9 7 -1 -2 14 -17 32 -17 45 1 15 19 7 41 -15 41 -11 0 -12 3 -4 8 8 5 1
14 -21 29 -24 15 -33 17 -33 7z"/>
<path d="M996 3664 c-18 -13 -17 -14 19 -14 21 0 36 1 34 3 -2 1 -11 8 -19 14
-11 9 -20 8 -34 -3z"/>
<path d="M730 3650 c-21 -7 -19 -8 12 -6 21 1 41 6 45 9 9 9 -26 7 -57 -3z"/>
<path d="M13 3634 c-15 -16 -17 -28 -3 -19 6 4 10 -7 10 -24 0 -20 5 -31 14
-31 21 0 27 15 17 42 -9 22 -10 22 -12 -7 -2 -25 -3 -24 -8 11 -5 34 -8 39
-18 28z"/>
<path d="M1193 3635 c-11 -8 -23 -12 -26 -9 -7 7 -2 -15 8 -40 6 -13 3 -23
-10 -32 -10 -8 -21 -11 -24 -6 -3 4 -12 8 -20 10 -12 3 -12 0 -2 -12 7 -8 20
-15 29 -14 9 0 28 -4 41 -8 17 -5 22 -4 17 4 -4 7 -1 12 8 12 9 0 16 5 16 10
0 6 -6 10 -14 10 -10 0 -13 8 -10 25 3 20 1 23 -13 18 -12 -4 -9 1 7 14 29 25
24 39 -7 18z"/>
<path d="M1545 3608 l-40 -43 43 40 c39 36 47 45 39 45 -2 0 -21 -19 -42 -42z"/>
<path d="M1556 3589 c-22 -27 -40 -39 -50 -36 -9 4 -18 2 -21 -3 -4 -6 5 -10
19 -10 14 0 28 5 31 10 4 6 11 7 17 4 6 -4 8 -2 5 3 -8 12 18 37 30 30 4 -3 9
6 9 19 1 13 0 24 -1 24 -2 0 -19 -19 -39 -41z"/>
<path d="M100 3616 c0 -2 7 -7 16 -10 8 -3 12 -2 9 4 -6 10 -25 14 -25 6z"/>
<path d="M65 3600 c-3 -5 -1 -10 4 -10 6 0 11 5 11 10 0 6 -2 10 -4 10 -3 0
-8 -4 -11 -10z"/>
<path d="M1689 3593 c-13 -15 -12 -15 11 -3 34 17 36 20 18 20 -9 0 -22 -7
-29 -17z"/>
<path d="M1761 3601 c-9 -6 4 -8 34 -6 26 2 49 6 53 9 9 10 -72 6 -87 -3z"/>
<path d="M1400 3549 c0 -5 5 -7 10 -4 6 3 10 8 10 11 0 2 -4 4 -10 4 -5 0 -10
-5 -10 -11z"/>
<path d="M1666 3544 c-3 -8 -10 -12 -16 -9 -5 3 -10 2 -10 -4 0 -15 13 -19 40
-10 16 4 19 7 8 8 -11 1 -15 6 -12 16 4 8 4 15 1 15 -3 0 -8 -7 -11 -16z"/>
<path d="M1728 3553 c7 -3 16 -2 19 1 4 3 -2 6 -13 5 -11 0 -14 -3 -6 -6z"/>
<path d="M1585 3540 c-4 -6 -1 -10 4 -10 6 0 20 -9 31 -20 11 -11 20 -16 20
-12 0 15 -49 52 -55 42z"/>
<path d="M1550 3528 c0 -9 7 -22 17 -29 15 -13 15 -12 3 11 -17 34 -20 36 -20
18z"/>
<path d="M865 3520 c3 -5 13 -10 21 -10 8 0 14 5 14 10 0 6 -9 10 -21 10 -11
0 -17 -4 -14 -10z"/>
<path d="M1150 3520 c0 -5 5 -10 11 -10 5 0 7 5 4 10 -3 6 -8 10 -11 10 -2 0
-4 -4 -4 -10z"/>
<path d="M1454 3504 c-4 -14 -2 -30 4 -36 6 -6 8 -18 4 -27 -5 -13 -3 -13 12
2 14 14 21 15 33 6 8 -7 10 -15 4 -18 -5 -4 4 -22 20 -41 28 -34 29 -34 19 -7
-6 16 -8 32 -5 37 3 5 1 11 -5 15 -5 3 -10 12 -10 18 0 7 4 6 11 -3 9 -13 10
-13 6 0 -2 10 -15 15 -40 14 -38 -2 -54 17 -41 50 3 9 3 16 0 16 -3 0 -9 -12
-12 -26z"/>
<path d="M1726 3513 c12 -10 27 -28 34 -41 9 -18 14 -21 25 -12 10 8 14 7 18
-2 3 -7 6 -8 6 -2 1 5 -6 19 -14 30 -15 19 -15 19 -9 -1 5 -17 2 -16 -18 6
-13 14 -32 29 -43 33 -19 6 -19 5 1 -11z"/>
<path d="M1510 3495 c7 -9 15 -13 17 -11 7 7 -7 26 -19 26 -6 0 -6 -6 2 -15z"/>
<path d="M1135 3480 c3 -5 8 -10 11 -10 2 0 4 5 4 10 0 6 -5 10 -11 10 -5 0
-7 -4 -4 -10z"/>
<path d="M1823 3465 c0 -8 4 -12 9 -9 4 3 8 0 8 -7 0 -19 50 -80 61 -74 11 7
12 26 2 24 -27 -4 -35 1 -23 16 10 12 10 15 -4 15 -9 0 -16 7 -16 15 0 8 4 14
9 13 8 -3 11 2 11 18 0 4 -7 1 -15 -6 -11 -9 -19 -10 -28 -1 -10 8 -14 7 -14
-4z"/>
<path d="M405 3459 c9 -19 69 -67 63 -49 -2 7 -19 24 -36 38 -18 14 -30 19
-27 11z"/>
<path d="M1920 3451 c0 -7 -4 -9 -10 -6 -5 3 -10 -1 -10 -9 0 -9 5 -16 10 -16
6 0 10 -6 10 -12 0 -7 10 -24 21 -38 20 -25 20 -25 0 17 -24 49 -27 66 -6 39
8 -11 15 -16 15 -10 -1 14 -30 49 -30 35z"/>
<path d="M1430 3432 c0 -11 27 -42 37 -42 3 0 -2 10 -13 23 -10 12 -20 24 -21
26 -2 2 -3 -1 -3 -7z"/>
<path d="M1558 3423 c-3 -4 6 -26 19 -48 18 -28 23 -33 18 -15 -3 14 -7 34 -8
44 -2 20 -22 33 -29 19z"/>
<path d="M1610 3414 c0 -3 9 -18 19 -32 10 -15 18 -31 17 -36 0 -5 7 -10 17
-12 16 -2 16 -1 0 28 -10 17 -24 32 -30 35 -7 3 -10 9 -7 14 3 5 0 9 -5 9 -6
0 -11 -3 -11 -6z"/>
<path d="M1490 3401 c0 -5 7 -15 17 -22 15 -13 15 -12 4 9 -12 23 -21 28 -21
13z"/>
<path d="M1360 3296 c0 -14 35 -76 43 -76 5 0 6 8 3 17 -4 9 -1 20 6 25 9 6 5
7 -9 3 -17 -5 -23 -2 -23 9 0 8 -4 18 -10 21 -5 3 -10 4 -10 1z"/>
<path d="M1315 3270 c-3 -6 1 -7 9 -4 18 7 21 14 7 14 -6 0 -13 -4 -16 -10z"/>
<path d="M1490 3260 c0 -5 5 -10 11 -10 5 0 7 5 4 10 -3 6 -8 10 -11 10 -2 0
-4 -4 -4 -10z"/>
<path d="M1335 3240 c3 -5 8 -10 11 -10 2 0 4 5 4 10 0 6 -5 10 -11 10 -5 0
-7 -4 -4 -10z"/>
<path d="M1310 3236 c0 -2 8 -10 18 -17 15 -13 16 -12 3 4 -13 16 -21 21 -21
13z"/>
<path d="M1410 3204 c0 -5 7 -19 15 -30 8 -10 15 -14 15 -8 0 5 -7 19 -15 30
-8 10 -15 14 -15 8z"/>
<path d="M1560 3195 c7 -8 17 -15 22 -15 6 0 5 7 -2 15 -7 8 -17 15 -22 15 -6
0 -5 -7 2 -15z"/>
<path d="M330 3096 c0 -8 6 -16 14 -19 10 -4 12 0 9 14 -6 22 -23 26 -23 5z"/>
<path d="M1480 3091 c0 -6 4 -13 10 -16 6 -3 7 1 4 9 -7 18 -14 21 -14 7z"/>
<path d="M1722 3064 c10 -10 20 -15 24 -12 3 4 -5 12 -18 18 -22 12 -22 12 -6
-6z"/>
<path d="M1425 3050 c3 -5 8 -10 11 -10 2 0 4 5 4 10 0 6 -5 10 -11 10 -5 0
-7 -4 -4 -10z"/>
<path d="M1641 3051 c-12 -8 -12 -12 2 -25 18 -18 28 -10 18 16 -4 12 -10 15
-20 9z"/>
<path d="M1225 3040 c-3 -5 -1 -10 4 -10 6 0 11 5 11 10 0 6 -2 10 -4 10 -3 0
-8 -4 -11 -10z"/>
<path d="M1480 2940 c0 -5 4 -10 9 -10 6 0 13 5 16 10 3 6 -1 10 -9 10 -9 0
-16 -4 -16 -10z"/>
<path d="M0 2909 c0 -11 4 -18 10 -14 5 3 7 12 3 20 -7 21 -13 19 -13 -6z"/>
<path d="M1409 2897 c-1 -30 -1 -31 -9 -7 -7 23 -8 22 -9 -11 -1 -19 6 -44 14
-55 8 -10 15 -14 15 -7 0 6 -5 15 -10 18 -6 4 -8 11 -4 16 3 5 10 6 16 3 6 -4
8 1 4 14 -4 11 -2 23 4 27 14 9 12 22 -5 29 -11 4 -15 -3 -16 -27z"/>
<path d="M1250 2907 c0 -1 -4 -18 -10 -37 -9 -32 -8 -33 5 -16 14 19 21 56 10
56 -3 0 -5 -1 -5 -3z"/>
<path d="M1440 2876 c0 -8 -3 -22 -7 -32 -4 -12 -2 -15 8 -12 15 5 22 58 8 58
-5 0 -9 -6 -9 -14z"/>
<path d="M1260 2856 c-15 -39 -12 -46 6 -13 9 16 13 31 10 34 -3 3 -10 -6 -16
-21z"/>
<path d="M10 2851 c0 -6 4 -13 10 -16 6 -3 7 1 4 9 -7 18 -14 21 -14 7z"/>
<path d="M1360 2834 c0 -6 7 -19 16 -30 14 -18 14 -18 3 6 -14 31 -19 36 -19
24z"/>
<path d="M90 2811 c0 -5 7 -12 16 -15 14 -5 15 -4 4 9 -14 17 -20 19 -20 6z"/>
<path d="M1362 2770 c0 -14 2 -19 5 -12 2 6 2 18 0 25 -3 6 -5 1 -5 -13z"/>
<path d="M1394 2779 c-3 -6 -1 -16 5 -22 8 -8 11 -5 11 11 0 24 -5 28 -16 11z"/>
<path d="M699 2758 c-7 -23 -5 -37 4 -31 7 4 8 0 3 -13 -6 -15 -5 -16 5 -7 9
9 9 15 0 27 -9 11 -9 15 1 19 10 4 10 6 1 6 -7 1 -13 0 -14 -1z"/>
<path d="M376 2742 c-3 -6 1 -15 9 -22 8 -7 15 -9 15 -4 0 4 7 -1 16 -12 15
-19 15 -18 5 2 -13 28 -38 47 -45 36z"/>
<path d="M435 2730 c10 -11 20 -20 23 -20 3 0 -3 9 -13 20 -10 11 -20 20 -23
20 -3 0 3 -9 13 -20z"/>
<path d="M510 2746 c0 -2 7 -7 16 -10 8 -3 12 -2 9 4 -6 10 -25 14 -25 6z"/>
<path d="M765 2730 c-4 -6 -10 -8 -14 -6 -4 3 -12 -4 -19 -15 -10 -16 -9 -19
3 -19 8 0 15 5 15 10 0 6 7 10 15 10 8 0 15 7 15 15 0 17 -6 19 -15 5z"/>
<path d="M323 2697 c3 -7 10 -11 17 -9 7 2 10 -3 7 -10 -2 -7 6 -21 18 -30
l22 -17 -18 36 c-17 33 -56 58 -46 30z"/>
<path d="M310 2664 c0 -8 5 -12 10 -9 6 3 10 10 10 16 0 5 -4 9 -10 9 -5 0
-10 -7 -10 -16z"/>
<path d="M799 2659 c-21 -13 -6 -19 26 -10 27 7 28 8 9 13 -12 3 -28 2 -35 -3z"/>
<path d="M1267 2657 c-3 -8 -1 -20 4 -28 6 -10 9 -7 9 14 0 29 -5 35 -13 14z"/>
<path d="M635 2650 c3 -5 8 -10 11 -10 2 0 4 5 4 10 0 6 -5 10 -11 10 -5 0 -7
-4 -4 -10z"/>
<path d="M1633 2643 c-10 -4 -9 -8 1 -19 18 -18 22 -18 30 2 3 8 2 13 -3 9 -5
-3 -11 -1 -13 3 -1 5 -9 7 -15 5z"/>
<path d="M1505 2630 c3 -5 10 -10 16 -10 5 0 9 5 9 10 0 6 -7 10 -16 10 -8 0
-12 -4 -9 -10z"/>
<path d="M898 2558 c2 -10 0 -18 -6 -18 -6 0 -12 6 -14 14 -2 10 -11 5 -29
-15 -16 -18 -21 -29 -13 -29 7 0 16 5 19 10 3 6 14 10 23 10 15 0 52 32 52 44
0 3 -8 4 -19 3 -12 -1 -17 -7 -13 -19z"/>
<path d="M1404 2505 c-4 -8 -4 -24 -1 -35 3 -12 -1 -24 -11 -30 -15 -8 -14 -9
6 -10 20 0 22 5 22 45 0 46 -6 57 -16 30z"/>
<path d="M1633 2450 c3 -11 0 -20 -6 -20 -19 0 3 -14 26 -16 12 -2 16 0 10 2
-7 3 -13 17 -13 30 0 13 -5 24 -11 24 -6 0 -9 -9 -6 -20z"/>
<path d="M1683 2415 c0 -7 6 -11 14 -8 9 4 11 0 7 -13 -5 -16 -4 -16 5 -4 15
21 14 27 -7 32 -11 3 -19 0 -19 -7z"/>
<path d="M1646 2381 c9 -9 45 -11 39 -2 -3 6 -14 9 -25 8 -10 -1 -17 -3 -14
-6z"/>
<path d="M1675 2350 c3 -5 8 -10 11 -10 2 0 4 5 4 10 0 6 -5 10 -11 10 -5 0
-7 -4 -4 -10z"/>
<path d="M1690 2300 c0 -5 5 -10 10 -10 6 0 10 5 10 10 0 6 -4 10 -10 10 -5 0
-10 -4 -10 -10z"/>
<path d="M1290 2265 c-11 -13 -10 -14 4 -9 9 3 16 10 16 15 0 13 -6 11 -20 -6z"/>
<path d="M1090 2244 c0 -3 7 -12 15 -20 16 -17 18 -14 9 10 -6 15 -24 23 -24
10z"/>
<path d="M1295 2240 c-3 -5 -1 -10 4 -10 6 0 11 5 11 10 0 6 -2 10 -4 10 -3 0
-8 -4 -11 -10z"/>
<path d="M1877 2122 c8 -5 9 -13 3 -22 -11 -17 -13 -37 -4 -27 4 3 15 -5 26
-18 25 -31 34 -31 40 0 3 14 1 23 -6 22 -6 -1 -11 6 -11 16 0 19 -21 37 -45
37 -11 0 -12 -2 -3 -8z m33 -22 c0 -5 -5 -10 -11 -10 -5 0 -7 5 -4 10 3 6 8
10 11 10 2 0 4 -4 4 -10z m10 -45 c14 -19 14 -19 -2 -6 -10 7 -18 18 -18 24 0
6 1 8 3 6 1 -2 9 -13 17 -24z"/>
<path d="M1577 2081 c-16 -32 -12 -48 7 -28 10 10 18 57 10 57 -2 0 -9 -13
-17 -29z"/>
<path d="M1016 2062 c-3 -5 1 -9 9 -9 8 0 15 4 15 9 0 4 -4 8 -9 8 -6 0 -12
-4 -15 -8z"/>
<path d="M1053 2052 c-9 -15 -7 -18 8 -19 20 -2 23 5 11 24 -6 9 -11 8 -19 -5z"/>
<path d="M970 2050 c0 -5 4 -10 9 -10 6 0 13 5 16 10 3 6 -1 10 -9 10 -9 0
-16 -4 -16 -10z"/>
<path d="M1270 2005 c-10 -12 -10 -15 3 -15 19 0 31 16 18 24 -5 3 -14 -1 -21
-9z"/>
<path d="M1285 1959 c-4 -6 -3 -15 3 -21 6 -6 11 -4 15 6 7 18 -9 31 -18 15z"/>
<path d="M1923 1865 c0 -12 3 -12 16 -2 12 10 14 9 8 -5 -4 -12 -2 -15 9 -11
11 4 12 9 3 19 -15 18 -36 18 -36 -1z"/>
<path d="M1326 1821 c-4 -6 0 -14 8 -17 9 -3 14 -9 11 -13 -9 -16 -13 -61 -4
-61 5 0 9 6 10 13 0 6 2 22 3 35 3 28 -18 60 -28 43z"/>
<path d="M1670 1821 c0 -6 4 -13 10 -16 6 -3 7 1 4 9 -7 18 -14 21 -14 7z"/>
<path d="M1293 1775 c0 -10 5 -11 19 -4 10 5 18 11 18 12 0 2 -8 3 -18 4 -10
1 -19 -5 -19 -12z"/>
<path d="M1365 1781 c-3 -5 -1 -12 5 -16 5 -3 10 1 10 9 0 18 -6 21 -15 7z"/>
<path d="M1297 1736 c-4 -11 -1 -13 11 -9 14 5 14 3 -3 -17 l-20 -23 22 14
c12 7 21 21 20 31 -2 22 -23 24 -30 4z"/>
<path d="M1390 1699 c0 -5 5 -7 10 -4 6 3 10 8 10 11 0 2 -4 4 -10 4 -5 0 -10
-5 -10 -11z"/>
<path d="M1342 1667 c-20 -20 -32 -42 -31 -57 1 -21 2 -22 6 -5 3 11 18 35 34
53 27 30 34 42 26 42 -2 0 -17 -15 -35 -33z"/>
<path d="M1400 1672 c0 -7 -4 -11 -9 -8 -5 4 -7 -3 -4 -15 4 -15 8 -17 14 -8
4 8 11 11 14 7 4 -3 -1 -18 -10 -32 -17 -25 -17 -26 1 -19 17 6 17 5 1 -17
-22 -31 -22 -46 -1 -25 10 9 17 30 16 46 0 18 3 27 10 23 10 -6 1 12 -22 46
-7 11 -10 11 -10 2z"/>
<path d="M1345 1623 l-17 -28 23 22 c12 12 20 25 17 28 -3 3 -13 -7 -23 -22z"/>
<path d="M1354 1598 l-19 -23 23 19 c21 18 27 26 19 26 -2 0 -12 -10 -23 -22z"/>
<path d="M1485 1360 c3 -5 8 -10 11 -10 2 0 4 5 4 10 0 6 -5 10 -11 10 -5 0
-7 -4 -4 -10z"/>
<path d="M1485 1320 c2 -11 8 -28 14 -37 9 -16 10 -16 11 4 0 27 -10 53 -20
53 -5 0 -7 -9 -5 -20z"/>
<path d="M930 1185 c7 -8 17 -12 22 -9 6 4 5 10 -3 15 -22 14 -33 10 -19 -6z"/>
<path d="M1055 1170 c-4 -6 12 -10 42 -9 39 1 43 3 23 9 -36 11 -58 11 -65 0z"/>
<path d="M8166 1157 c-28 -20 1 -39 45 -30 l34 7 -35 6 -35 6 35 11 35 11 -31
1 c-16 1 -38 -5 -48 -12z"/>
<path d="M964 1141 c-18 -11 -35 -25 -39 -32 -4 -6 9 0 31 14 36 25 39 26 57
9 19 -16 20 -16 8 6 -14 27 -18 27 -57 3z"/>
<path d="M7890 1120 c-18 -6 -4 -8 48 -9 42 -1 72 3 72 9 0 12 -84 12 -120 0z"/>
<path d="M1420 1105 c0 -16 -9 -18 -47 -15 -13 1 -23 -3 -23 -9 0 -6 -5 -11
-11 -11 -6 0 -9 7 -6 14 6 16 -16 12 -40 -7 -7 -5 -28 -7 -47 -5 -24 3 -32 0
-29 -8 6 -16 63 -37 63 -23 0 12 37 12 45 -1 4 -6 3 -10 -2 -9 -15 2 -53 -13
-53 -22 0 -5 -8 -9 -18 -9 -10 0 -27 -7 -38 -16 -18 -14 -16 -15 26 -9 25 3
61 14 80 23 29 14 51 16 110 11 84 -6 120 2 74 18 -16 5 -36 9 -44 8 -8 0 -18
4 -23 10 -5 6 -13 3 -22 -9 -8 -11 -15 -14 -15 -7 0 7 -5 9 -11 5 -7 -4 -10 1
-7 12 2 11 13 20 26 22 16 3 22 10 22 28 0 13 -2 24 -5 24 -3 0 -5 -7 -5 -15z"/>
<path d="M8062 1083 c-34 -50 -36 -58 -6 -33 16 14 32 29 35 34 7 9 69 -24 89
-49 7 -8 17 -15 23 -15 17 0 -23 38 -69 65 -23 14 -45 25 -48 25 -2 0 -13 -12
-24 -27z"/>
<path d="M587 1094 c-4 -4 -4 -10 -2 -14 6 -10 55 0 55 11 0 10 -43 12 -53 3z"/>
<path d="M318 1063 c-27 -7 -21 -23 7 -23 14 0 25 4 25 9 0 13 -12 18 -32 14z"/>
<path d="M514 1048 l-19 -22 26 16 c21 13 29 14 40 5 11 -10 11 -9 0 6 -17 22
-24 22 -47 -5z"/>
<path d="M3740 1040 c-13 -8 -13 -10 2 -10 9 0 20 5 23 10 8 13 -5 13 -25 0z"/>
<path d="M580 1036 c0 -2 8 -10 18 -17 15 -13 16 -12 3 4 -13 16 -21 21 -21
13z"/>
<path d="M7410 1023 c0 -23 30 -53 53 -53 16 0 22 -12 18 -33 -1 -5 9 -6 21
-2 18 5 20 4 8 -4 -21 -15 -36 -14 -54 4 -8 8 -17 11 -21 6 -3 -5 3 -12 13
-15 18 -6 27 -36 10 -36 -4 0 -8 5 -8 11 0 5 -5 7 -12 3 -7 -4 -8 -3 -4 4 9
14 -8 15 -52 3 -22 -7 -30 -6 -26 1 4 6 1 8 -7 5 -8 -3 -31 -11 -51 -18 -43
-14 -48 -25 -15 -32 28 -7 216 7 240 17 10 5 17 4 17 -3 0 -16 48 -37 135 -60
74 -19 95 -19 95 -3 0 16 -68 44 -90 37 -19 -6 -22 -4 -16 10 11 29 -6 39 -24
15 -13 -17 -19 -20 -25 -10 -5 8 -4 11 2 7 6 -4 13 3 16 14 3 12 3 18 0 15
-10 -10 -44 15 -53 40 -9 23 -50 35 -50 14 0 -5 -10 -10 -22 -10 -20 0 -19 2
10 20 43 26 59 25 66 -5 4 -14 11 -25 17 -25 6 0 7 5 4 10 -11 18 4 10 30 -16
37 -36 85 -27 114 21 24 41 23 41 -21 17 -18 -10 -39 -18 -45 -17 -7 2 -19 3
-27 4 -8 0 -22 8 -31 17 -9 9 -19 14 -22 10 -3 -3 -12 2 -19 12 -11 14 -16 15
-33 4 -13 -7 -21 -8 -21 -2 0 5 -4 10 -10 10 -5 0 -10 -9 -10 -20 0 -13 -6
-20 -17 -19 -11 0 -13 3 -5 6 6 2 12 9 12 14 0 6 -6 7 -16 1 -19 -10 -53 -5
-55 9 -1 5 -2 13 -3 18 -2 20 -16 23 -16 4z m314 -85 c-3 -4 -12 -8 -20 -8 -8
0 -13 4 -10 8 3 5 12 9 20 9 8 0 13 -4 10 -9z m-134 -28 c0 -5 8 -10 17 -10 9
0 14 -3 10 -6 -8 -8 -47 5 -47 17 0 5 5 9 10 9 6 0 10 -4 10 -10z"/>
<path d="M3583 1023 c9 -2 25 -2 35 0 9 3 1 5 -18 5 -19 0 -27 -2 -17 -5z"/>
<path d="M3664 988 l-19 -23 23 19 c20 17 25 18 50 5 44 -22 49 -22 17 0 -38
26 -47 26 -71 -1z"/>
<path d="M7995 1000 c4 -6 11 -8 16 -5 14 9 11 15 -7 15 -8 0 -12 -5 -9 -10z"/>
<path d="M8660 1001 c-21 -6 -16 -9 28 -15 54 -7 77 -2 67 15 -7 10 -58 10
-95 0z"/>
<path d="M8896 982 c-2 -4 27 -7 65 -7 38 0 69 3 69 8 0 9 -127 9 -134 -1z"/>
<path d="M7410 971 c0 -5 5 -13 10 -16 6 -3 10 -2 10 4 0 5 -4 13 -10 16 -5 3
-10 2 -10 -4z"/>
<path d="M128 963 c7 -3 16 -2 19 1 4 3 -2 6 -13 5 -11 0 -14 -3 -6 -6z"/>
<path d="M4075 950 c28 -12 47 -12 40 0 -3 6 -18 10 -33 9 -24 0 -25 -1 -7 -9z"/>
<path d="M8752 915 c-30 -25 -51 -45 -47 -45 4 0 26 16 49 35 24 19 48 35 55
35 6 0 31 -18 55 -40 59 -55 63 -50 8 10 -25 28 -50 50 -56 50 -6 0 -35 -21
-64 -45z"/>
<path d="M4233 943 c15 -2 37 -2 50 0 12 2 0 4 -28 4 -27 0 -38 -2 -22 -4z"/>
<path d="M4150 926 c0 -2 12 -12 28 -21 l27 -18 -19 21 c-17 20 -36 29 -36 18z"/>
<path d="M1023 863 c-7 -3 -13 -12 -13 -21 0 -11 3 -13 8 -6 4 6 14 13 22 16
7 2 10 7 5 10 -6 3 -16 3 -22 1z"/>
<path d="M1290 860 c0 -5 5 -10 11 -10 5 0 7 5 4 10 -3 6 -8 10 -11 10 -2 0
-4 -4 -4 -10z"/>
<path d="M1220 826 c0 -2 7 -7 16 -10 8 -3 12 -2 9 4 -6 10 -25 14 -25 6z"/>
<path d="M1000 800 c0 -5 7 -10 16 -10 8 0 12 5 9 10 -3 6 -10 10 -16 10 -5 0
-9 -4 -9 -10z"/>
<path d="M1555 790 c3 -5 11 -10 16 -10 6 0 7 5 4 10 -3 6 -11 10 -16 10 -6 0
-7 -4 -4 -10z"/>
<path d="M908 785 c-3 -3 -40 -12 -84 -20 -43 -9 -81 -21 -86 -27 -10 -18 -1
-23 16 -9 11 9 20 10 35 2 16 -9 22 -7 33 7 7 11 30 22 50 26 21 4 40 11 43
16 7 11 2 14 -7 5z"/>
<path d="M860 719 c-22 -6 -20 -7 13 -8 38 -1 47 3 25 11 -7 3 -24 1 -38 -3z"/>
<path d="M760 700 l-25 -8 25 -1 c14 0 32 4 40 9 13 9 13 10 0 9 -8 -1 -26 -5
-40 -9z"/>
</g>
</svg>
